<svg width="163" height="27" xmlns="http://www.w3.org/2000/svg">
 <g>
  <title>background</title>
  <rect fill="none" id="canvas_background" height="29" width="165" y="-1" x="-1"/>
 </g>

 <g>
  <title>Layer 1</title>
  <path stroke="#ffffff" id="svg_1" fill="#66c05d" d="m25.960899,18.0156c0,0.203199 -0.054699,0.3906 -0.164,0.5625c-0.1094,0.1563 -0.140699,0.3438 -0.0938,0.5625c-0.0625,0.1094 -0.148399,0.195299 -0.257801,0.257799c-0.093699,0.0625 -0.125,0.179701 -0.093699,0.351601c-0.328201,0.1719 -0.632801,0.3906 -0.914101,0.6562c-0.2656,0.25 -0.554701,0.492199 -0.867201,0.726599c-0.1875,0.1406 -0.3515,0.242201 -0.492199,0.304701c-0.125,0.0469 -0.2812,0.125 -0.4687,0.2344l-0.586,0.375c-0.2656,0.1406 -0.539,0.2812 -0.820299,0.4219c-0.2656,0.1406 -0.507801,0.320301 -0.7265,0.539c-0.328201,0.0156 -0.664101,0.101601 -1.007801,0.257801c-0.3438,0.1719 -0.6719,0.320299 -0.9844,0.445299c-0.125,0.0469 -0.25,0.078201 -0.375,0.093801c-0.125,0.031199 -0.25,0.078098 -0.375,0.140598l-0.375,0.164101c-0.2188,0.1094 -0.476601,0.2187 -0.7735,0.3281c-0.296799,0.125 -0.5625,0.1875 -0.7968,0.1875c-0.140699,0.0625 -0.257899,0.1719 -0.3516,0.3281c-0.5156,0.1719 -1.0469,0.304699 -1.5937,0.3985c-0.5469,0.093699 -1.078199,0.242199 -1.5938,0.445299c-0.1719,0.0781 -0.3516,0.179701 -0.5391,0.304701c-0.171801,0.1406 -0.359301,0.2031 -0.5625,0.1875c-0.046801,0.0781 -0.0781,0.171799 -0.0937,0.281199c-0.0156,0.109402 -0.0391,0.218801 -0.0703,0.3281l-0.0703,0c-0.0625,0 -0.0938,-0.031199 -0.0938,-0.093699c0.0156,-0.0625 -0.0078,-0.093801 -0.0703,-0.093801c-0.0469,0 -0.0781,0.0079 -0.0938,0.0235c-0.2031,0.046801 -0.3984,0.085899 -0.5859,0.117201c-0.17186,0.031199 -0.36718,0.046799 -0.58592,0.046799c-0.125,0 -0.32813,-0.0156 -0.60938,-0.046799c-0.26562,-0.031301 -0.46094,-0.0704 -0.58594,-0.117201c-0.09375,-0.0469 -0.171869,-0.132799 -0.234369,-0.257799c-0.0625,-0.125 -0.125,-0.257801 -0.1875,-0.3985c-0.04688,-0.1406 -0.09375,-0.289 -0.14063,-0.445301c-0.03125,-0.140598 -0.0625,-0.257799 -0.09375,-0.351599c0.04688,-0.171801 0.125,-0.312401 0.23438,-0.421801c0.10937,-0.1094 0.19531,-0.25 0.25781,-0.4219c0.14062,-0.0156 0.28125,-0.039101 0.42188,-0.070299c0.14062,-0.031301 0.28124,-0.039101 0.42187,-0.023401c0.48437,-0.140699 0.96875,-0.2813 1.45315,-0.4219c0.5,-0.125 0.9922,-0.257799 1.476501,-0.3985c0.4844,-0.1406 0.960999,-0.296799 1.4297,-0.468699c0.4688,-0.171902 0.9219,-0.382801 1.3594,-0.632801l0.4922,0c0.2812,-0.1563 0.5937,-0.289101 0.937501,-0.3985c0.343699,-0.109299 0.625,-0.289 0.843699,-0.539c0.515701,-0.1094 1.054701,-0.257799 1.617201,-0.445299c0.5625,-0.1875 1.0313,-0.4844 1.4063,-0.890701c0.2344,-0.031199 0.4375,-0.085899 0.6094,-0.164c0.171801,-0.0938 0.335901,-0.1875 0.4921,-0.2813l0.468801,-0.304701c0.156199,-0.109299 0.335899,-0.195299 0.539099,-0.257799c0.125,-0.125 0.2421,-0.257801 0.3515,-0.398399c0.109402,-0.1406 0.242201,-0.257801 0.3985,-0.351601c-0.0469,-0.25 -0.1719,-0.4375 -0.375,-0.5625c-0.203199,-0.125 -0.3829,-0.273399 -0.539099,-0.445301l-0.5156,0c-0.406301,-0.25 -0.843801,-0.4375 -1.3125,-0.5625c-0.453201,-0.140598 -0.906301,-0.289099 -1.3594,-0.445299c-0.031301,-0.0156 -0.070301,-0.023399 -0.117201,-0.023399c-0.1094,0 -0.179701,0.039 -0.210899,0.117199c-0.015701,0.0781 -0.078201,0.109301 -0.1875,0.0937c-0.140701,-0.0937 -0.289101,-0.148399 -0.4454,-0.164101c-0.1562,-0.031199 -0.320301,-0.046799 -0.4921,-0.046799c-0.218801,0 -0.4375,0.0156 -0.656301,0.046799c-0.203098,0.015701 -0.414,0.0235 -0.632799,0.0235c-0.1094,0 -0.2188,-0.007799 -0.3281,-0.0235c-0.1094,-0.0156 -0.2188,-0.0546 -0.3281,-0.117199l-0.3047,0c-0.328199,0 -0.6563,0.015699 -0.9844,0.0469c-0.3125,0.015699 -0.625,0.0235 -0.9375,0.0235c-0.1719,0 -0.335999,0 -0.4922,0c-0.1562,-0.015701 -0.3125,-0.039101 -0.4688,-0.0704c-0.3281,0.1563 -0.679601,0.265699 -1.054601,0.328199c-0.375,0.0625 -0.765699,0.1094 -1.171909,0.1406c-0.390631,0.0312 -0.78125,0.0625 -1.171881,0.0938c-0.390619,0.0156 -0.76562,0.0546 -1.125,0.1171c-0.09375,-0.0156 -0.1875,-0.023399 -0.28125,-0.023399c-0.07812,-0.0156 -0.15625,-0.023399 -0.23437,-0.023399c-0.07813,0 -0.16407,0.007799 -0.25781,0.023399c-0.07813,0 -0.15626,0.007799 -0.23438,0.023399c-0.20312,-0.218699 -0.45312,-0.375 -0.75,-0.468699c-0.28125,-0.109402 -0.5625,-0.179701 -0.84375,-0.211c-0.21875,-0.2656 -0.38281,-0.5312 -0.49219,-0.796801c-0.09375,-0.2813 -0.15625,-0.5938 -0.1875,-0.9375l0.09375,0c0.10938,0 0.15625,-0.0547 0.14063,-0.1641c0,-0.1094 0.03906,-0.2031 0.11718,-0.2812c0.07813,-0.0938 0.17969,-0.1563 0.30469,-0.1875c0.14063,-0.0469 0.27344,-0.0938 0.39844,-0.140699c0.125,-0.046801 0.24219,-0.101501 0.35156,-0.164001c0.125,-0.078199 0.21875,-0.1953 0.28125,-0.3516l0.30469,0c0.0625,0 0.125,0.0078 0.1875,0.0234c0.07813,0 0.14063,0.023499 0.1875,0.070399c0.0625,-0.0625 0.14063,-0.1172 0.23437,-0.1641c0.09376,-0.0469 0.17969,-0.0937 0.25782,-0.1406c0.09375,-0.0469 0.17187,-0.1016 0.23437,-0.1641c0.0625,-0.0625 0.10157,-0.1562 0.11719,-0.2812c0.01562,0.046801 0.05469,0.0703 0.11719,0.0703c0.0625,0 0.11719,-0.015699 0.16406,-0.0469c0.0625,-0.0312 0.13281,-0.0391 0.21094,-0.0234c0.078119,-0.2188 0.21093,-0.335999 0.39843,-0.3516c0.1875,-0.0156 0.35938,-0.0703 0.51563,-0.1641c0.10937,-0.0625 0.21094,-0.1328 0.30469,-0.2109c0.09375,-0.0938 0.19531,-0.1797 0.30468,-0.2578l1.40628,-1.0781l2.1562,-1.640659c0.7188,-0.546881 1.453199,-1.05469 2.203199,-1.52344c0.0312,-0.09375 0.0781,-0.16406 0.1406,-0.21094c0.0625,-0.04687 0.125,-0.09375 0.1875,-0.14062c0.0625,-0.0625 0.109301,-0.125 0.1406,-0.1875c0.0469,-0.0625 0.0625,-0.15625 0.0469,-0.28125c0.2187,-0.04688 0.382801,-0.13281 0.492201,-0.25781c0.125,-0.125 0.234299,-0.25782 0.3281,-0.39844c0.093699,-0.15625 0.1875,-0.30469 0.281199,-0.44532c0.1094,-0.15624 0.25,-0.27343 0.4219,-0.35156c-0.015598,-0.04687 -0.023399,-0.11718 -0.023399,-0.21094c0,-0.125 0.007801,-0.25 0.023399,-0.375c0.031301,-0.125 0.093801,-0.23437 0.1875,-0.32812c-0.140598,-0.32812 -0.382799,-0.5625 -0.7265,-0.70312c-0.3438,-0.15626 -0.6719,-0.28907 -0.9844,-0.39844l-0.0703,0c-0.078199,0 -0.125,0.03906 -0.140699,0.11718c0,0.0625 -0.039001,0.10938 -0.1172,0.14063c-0.25,-0.0625 -0.5312,-0.09375 -0.8437,-0.09375c-0.3125,0 -0.625,0.02344 -0.9375,0.07031c-0.2969,0.04688 -0.6016,0.05469 -0.9141,0.02344c-0.046801,0.0625 -0.101501,0.125 -0.164001,0.1875c-0.0469,0.0625 -0.1094,0.11719 -0.1875,0.16406c-0.328199,0.01563 -0.6563,0.0625 -0.9844,0.14063l-0.9844,0.23437l-0.539041,0.11719c-0.078119,0.03125 -0.13281,0.08594 -0.16406,0.16406c-0.03125,0.07813 -0.05469,0.16406 -0.07031,0.25782c-0.09375,-0.01563 -0.15625,-0.05469 -0.1875,-0.11719c-0.015631,-0.0625 -0.070311,-0.10938 -0.16407,-0.14063c-0.35937,0.21875 -0.75,0.39844 -1.17187,0.53906c-0.40625,0.14063 -0.77344,0.35938 -1.10156,0.65626c-0.10938,-0.125 -0.26563,-0.1875 -0.46875,-0.1875c-0.17188,0 -0.35938,0.05468 -0.5625,0.16406c-0.20313,0.10937 -0.32813,0.25 -0.375,0.42187c-0.15625,-0.03125 -0.27344,-0.04687 -0.35156,-0.04687c-0.17188,0 -0.32032,0.04687 -0.44532,0.14062c-0.10937,0.09375 -0.21875,0.20313 -0.32812,0.32813c-0.10938,0.10937 -0.22656,0.21875 -0.35156,0.32812c-0.125,0.10938 -0.28126,0.17188 -0.46876,0.1875c0,0.07813 0,0.16407 0,0.25781c0.01563,0.07813 0.02344,0.16407 0.02344,0.25782c0,0.70312 -0.03906,1.40625 -0.11718,2.10937c-0.07813,0.68749 -0.11719,1.382791 -0.11719,2.08599c0,0.1562 0.00781,0.312401 0.02343,0.4687c0.01563,0.1406 0.02344,0.2969 0.02344,0.4687c0,0.0469 -0.03906,0.148499 -0.11718,0.3047c-0.0625,0.1563 -0.10938,0.273499 -0.14063,0.3516c0.0625,0.1719 0.08594,0.3437 0.07031,0.5156c0,0.1719 0.03906,0.335999 0.11719,0.4922c-0.14063,0.125 -0.21094,0.2969 -0.21094,0.5156c0,0.0938 0,0.1875 0,0.2813c0.01563,0.0937 0.02344,0.1875 0.02344,0.2812l0,0.2813c-0.04687,0.3125 -0.07813,0.6328 -0.09375,0.9609c-0.01562,0.3125 -0.02344,0.625 -0.02344,0.9375c0,0.140699 0,0.382799 0,0.726601c0.01563,0.328098 0.03906,0.703098 0.07032,1.125c0.03124,0.406199 0.07812,0.828098 0.14062,1.265598c0.0625,0.4375 0.14062,0.843801 0.23438,1.218801c0.10937,0.359299 0.24218,0.656199 0.39843,0.8906c0.15625,0.2344 0.34375,0.3515 0.5625,0.3515c0.04688,0 0.10157,-0.007801 0.16407,-0.023401c0.07812,-0.015598 0.11718,-0.054699 0.11718,-0.117199c0,-0.0625 -0.01562,-0.117201 -0.04687,-0.164c-0.01563,-0.0469 -0.02344,-0.101601 -0.02344,-0.164101l0.02344,-0.0469c0.125,0.0625 0.25781,0.101601 0.39843,0.117199c0.15626,0.0156 0.3125,0.031301 0.46876,0.046902c0.15624,0.015598 0.30468,0.039099 0.44531,0.070299c0.14062,0.0469 0.26562,0.132799 0.375,0.257799c-0.0625,0.125 -0.09375,0.257801 -0.09375,0.398401c0,0.187599 0.04687,0.3594 0.14062,0.515699c0.09375,0.1719 0.15625,0.3437 0.1875,0.5156c-0.29687,0.0937 -0.57031,0.195299 -0.82031,0.304701c-0.23437,0.125 -0.46875,0.2344 -0.70313,0.328098c-0.23437,0.109402 -0.48437,0.2031 -0.75,0.281301c-0.26562,0.093699 -0.57031,0.156199 -0.91406,0.1875c-0.21875,-0.140701 -0.40625,-0.265701 -0.5625,-0.375c-0.15625,-0.1094 -0.36718,-0.179701 -0.63281,-0.211c-0.40625,-0.5469 -0.74219,-1.164 -1.00781,-1.8515c-0.26563,-0.6719 -0.47656,-1.375 -0.63281,-2.1094c-0.14063,-0.734411 -0.24219,-1.468801 -0.30469,-2.2031c-0.04688,-0.75 -0.07031,-1.453201 -0.07031,-2.1094c0,-0.718801 0.02343,-1.429701 0.07031,-2.132801c0.0625,-0.7188 0.14062,-1.4375 0.23437,-2.1563c0.03125,-0.2187 0.0625,-0.4375 0.09375,-0.6562c0.03125,-0.2344 0.0625,-0.460999 0.09375,-0.6797c0.03125,-0.0781 0.05469,-0.1641 0.07032,-0.2578c0.03125,-0.1094 0.04687,-0.2031 0.04687,-0.2813c0,-0.2656 -0.00781,-0.53122 -0.02344,-0.79685c-0.01562,-0.26563 -0.02343,-0.52344 -0.02343,-0.77344c0,-0.390619 0.02343,-0.78906 0.07031,-1.19531c0.01562,-0.07812 0.03906,-0.17969 0.07031,-0.30469c0.04687,-0.125 0.07031,-0.23437 0.07031,-0.32812c0,-0.125 -0.03125,-0.21094 -0.09375,-0.25781c-0.0625,-0.04688 -0.11718,-0.125 -0.16406,-0.23438c0.04688,-0.15625 0.08594,-0.30469 0.11719,-0.44531c0.03125,-0.15625 0.04687,-0.3125 0.04687,-0.46875c0,-0.29688 -0.05469,-0.55469 -0.16406,-0.77344c0.07813,-0.40625 0.19531,-0.80469 0.35156,-1.19531c0.15625,-0.39063 0.42969,-0.6875 0.82031,-0.89063c0.3125,0.01563 0.625,0.04688 0.9375,0.09375c0.32813,0.04688 0.60938,0.17969 0.84376,0.39844c0.10937,-0.0625 0.23437,-0.10156 0.375,-0.11719l0.44531,-0.04687c0.15625,-0.01563 0.29687,-0.03907 0.42187,-0.07031c0.125,-0.04688 0.23438,-0.13282 0.32813,-0.25782c0.3125,-0.0625 0.64843,-0.14844 1.00781,-0.25781c0.35938,-0.125 0.67188,-0.26563 0.9375,-0.42187l0.51562,0c0.10938,-0.07813 0.23438,-0.13282 0.375,-0.16407l0.44532,-0.11719c0.15625,-0.04687 0.296869,-0.09374 0.421869,-0.14062c0.140631,-0.04688 0.25,-0.125 0.328131,-0.23438l0.09375,0c0.359369,0 0.71091,-0.07812 1.054709,-0.23437c0.3437,-0.15625 0.6797,-0.29687 1.0078,-0.42187c0.0781,-0.03125 0.1953,-0.08594 0.3516,-0.16407c0.171801,-0.07812 0.289001,-0.11718 0.351501,-0.11718c0.2188,-0.03125 0.4375,-0.04688 0.6563,-0.04688c0.2187,-0.01562 0.4375,-0.04687 0.6562,-0.09375c0.5,-0.07812 0.9922,-0.16406 1.4766,-0.25781c0.5,-0.10938 1,-0.16406 1.5,-0.16406c0.171801,0 0.3281,0.00781 0.4687,0.02343c0.1563,0 0.320299,0.00782 0.492199,0.02344c0.0156,0.0625 0.054701,0.11719 0.117201,0.16406c0.0625,0.03125 0.117201,0.0625 0.164101,0.09375c0.0625,0.03125 0.117199,0.07813 0.164,0.14063c0.0469,0.04687 0.0625,0.11719 0.0469,0.21094c0.0313,0.03125 0.0625,0.04687 0.0937,0.04687c0.0469,0 0.086,-0.02344 0.117199,-0.07031c0.0469,-0.04688 0.1094,-0.07031 0.1875,-0.07031l0.117201,0c0.2031,0.21875 0.3985,0.42968 0.586,0.63281c0.2031,0.1875 0.4531,0.34375 0.75,0.46875c0.125,0.46875 0.273399,0.92969 0.445299,1.38281c0.171801,0.45312 0.257801,0.9375 0.257801,1.45312c0,0.3125 -0.046902,0.61719 -0.1406,0.91407c-0.218801,0.10937 -0.375,0.28125 -0.468801,0.51562c-0.093699,0.23438 -0.179699,0.46094 -0.257799,0.67969c-0.4375,0.21875 -0.804701,0.50781 -1.101601,0.86719c-0.296799,0.35937 -0.6015,0.71875 -0.914,1.07812l-0.375,0c-0.0625,0 -0.1094,0.02344 -0.1406,0.070311l-0.211,0.23438c-0.140598,0.125 -0.2969,0.25 -0.468699,0.375c-0.156301,0.125 -0.2735,0.28906 -0.351601,0.49219c-0.4844,0.26561 -0.9531,0.56251 -1.4063,0.89061c-0.437401,0.3281 -0.859301,0.6719 -1.2656,1.0313c-0.171801,0.1406 -0.3437,0.3047 -0.5156,0.492101c-0.1719,0.1719 -0.3438,0.320399 -0.5156,0.445399c-0.0938,0.0781 -0.203199,0.1484 -0.328199,0.2109c-0.109301,0.0469 -0.2109,0.1094 -0.304601,0.1875c-0.203199,0.1562 -0.390699,0.3203 -0.5625,0.4922c-0.1719,0.1562 -0.3516,0.3047 -0.5391,0.4453c0.7031,-0.0313 1.4141,-0.0469 2.1328,-0.0469c0.7188,-0.0156 1.4297,-0.0312 2.1328,-0.046801c0.3594,0 0.710999,-0.007899 1.054699,-0.023499c0.343801,-0.0312 0.695301,-0.0469 1.054701,-0.0469c0.0625,0 0.117201,0.015699 0.164101,0.0469c0.046799,0.0156 0.1015,0.0313 0.164,0.0469c0.265699,0.0469 0.5,0.1016 0.7031,0.164001c0.75,0.140699 1.5,0.265699 2.25,0.375c0.75,0.1094 1.4844,0.2891 2.203199,0.5391c0.2031,0.0781 0.3515,0.1641 0.445301,0.2578c0.1094,0.0938 0.2969,0.1172 0.5625,0.0703c0.218699,0.2188 0.453098,0.390699 0.703098,0.515699c0.2656,0.125 0.531301,0.2343 0.796902,0.328101c0.203098,0.3125 0.390598,0.6094 0.5625,0.890598c0.1875,0.281301 0.281199,0.617201 0.281199,1.007801zm18.703201,2.2735c-0.046902,0.218699 -0.148502,0.398399 -0.304699,0.539c-0.140602,0.125 -0.3125,0.226601 -0.515602,0.304699c-0.203201,0.0781 -0.414101,0.132801 -0.6329,0.164101c-0.203098,0.0156 -0.390598,0.023399 -0.5625,0.023399c-0.078098,0 -0.1562,0 -0.234299,0c-0.0625,-0.015598 -0.1329,-0.023399 -0.211002,-0.023399c-0.078098,0 -0.117199,0.039 -0.117199,0.117201c0,0.0781 -0.038998,0.132799 -0.1171,0.164c-0.078201,-0.0312 -0.1563,-0.054701 -0.234398,-0.070301c-0.078201,-0.015598 -0.156303,-0.023399 -0.234402,-0.023399c-0.109402,0 -0.2188,0.007801 -0.328098,0.023399c-0.093803,0.0156 -0.1875,0.023401 -0.281303,0.023401c-0.125,0 -0.218697,-0.0156 -0.281197,-0.046801c-0.046902,-0.0313 -0.093803,-0.0625 -0.140602,-0.0938c-0.0313,-0.046801 -0.0704,-0.0937 -0.117199,-0.1406c-0.0313,-0.0469 -0.086002,-0.085899 -0.164101,-0.117201c-0.109402,-0.0469 -0.203098,-0.054699 -0.2813,-0.023399c-0.062401,0.0312 -0.164001,-0.0156 -0.3046,-0.1406c-0.1875,-0.1563 -0.351601,-0.3438 -0.492199,-0.562599c-0.125,-0.234301 -0.25,-0.4765 -0.375,-0.7265c-0.125,-0.25 -0.257801,-0.5 -0.398502,-0.75c-0.140598,-0.25 -0.304699,-0.468801 -0.4921,-0.656301l-0.187599,0c-0.2812,0 -0.476501,0.117201 -0.585899,0.351601c-0.078102,-0.0469 -0.1562,-0.101601 -0.234402,-0.164101c-0.078098,-0.0781 -0.163998,-0.1406 -0.257801,-0.1875c-0.359299,0.1094 -0.734299,0.203201 -1.125,0.281301c-0.390598,0.078098 -0.781197,0.117199 -1.171898,0.117199l-0.328102,0c-0.093697,0 -0.195297,-0.015699 -0.304699,-0.0469c-0.1562,0.0625 -0.296799,0.1406 -0.421799,0.2344c-0.125,0.0781 -0.265701,0.117201 -0.421902,0.117201c-0.0938,0 -0.203098,-0.031301 -0.328098,-0.093801c-0.0938,0 -0.140701,0.039101 -0.140701,0.117201c0.015701,0.0781 -0.0312,0.117201 -0.140598,0.117201l-0.210901,0c-0.2188,0 -0.4375,0.007799 -0.6563,0.023399c-0.2031,0.0156 -0.414,0.0235 -0.632801,0.0235c-0.2969,0 -0.6015,-0.039101 -0.914099,-0.117201c-0.0781,0.0469 -0.164,0.070301 -0.257801,0.070301c-0.0625,0.031199 -0.109299,0.085899 -0.1406,0.164c-0.031199,0.062599 -0.0625,0.125 -0.093699,0.187599c-0.031301,0.046801 -0.078201,0.0937 -0.140701,0.1406c-0.046799,0.0312 -0.117199,0.039 -0.210899,0.023399c-0.0313,0.1875 -0.1094,0.336 -0.2344,0.445301c-0.125,0.1094 -0.1875,0.2735 -0.1875,0.492199c-0.171801,0.093801 -0.3125,0.210901 -0.421801,0.351601c-0.1094,0.1406 -0.2188,0.289 -0.328199,0.445301c-0.1094,0.156199 -0.2265,0.304699 -0.3515,0.445299c-0.1094,0.1406 -0.25,0.25 -0.4219,0.3281c-0.0781,0.0938 -0.101601,0.242199 -0.070301,0.445299c-0.1719,0.140701 -0.382799,0.265701 -0.632799,0.375c-0.25,0.1094 -0.4844,0.164101 -0.703201,0.164101c-0.4531,0 -0.7656,-0.242201 -0.9375,-0.726601c0,-0.156199 0.015701,-0.320299 0.0469,-0.492199c0.0156,-0.187401 0.046902,-0.359301 0.093801,-0.5156c0.046799,-0.171801 0.1171,-0.320301 0.210899,-0.445301c0.0938,-0.140598 0.226601,-0.242199 0.398399,-0.304699c0,-0.1406 -0.046799,-0.2344 -0.1406,-0.2812c-0.093699,-0.0625 -0.132799,-0.164101 -0.117199,-0.304699c0.4219,-0.2031 0.789101,-0.468801 1.101601,-0.796902c0.3125,-0.328098 0.593699,-0.6719 0.843699,-1.031199c0.265701,-0.375 0.531301,-0.75 0.7969,-1.125c0.2656,-0.375 0.5625,-0.711 0.8906,-1.007801l0,-0.4922c0.468801,-0.5 0.7735,-1.0625 0.914101,-1.6875c0.1719,-0.0313 0.2813,-0.1094 0.3281,-0.2344c0.0625,-0.125 0.0938,-0.273499 0.0938,-0.4453c0.0781,0 0.125,-0.0313 0.1406,-0.0938c0.0312,-0.0781 0.101601,-0.101501 0.210899,-0.0703c0.140701,-0.375 0.2969,-0.7187 0.468801,-1.0312c0.1719,-0.3125 0.343699,-0.625 0.515598,-0.9375c0.171902,-0.328199 0.320301,-0.6641 0.445301,-1.0078c0.1406,-0.3438 0.242201,-0.726609 0.304701,-1.14849c0.2188,-0.015619 0.335899,-0.117189 0.351601,-0.304689c0.031197,-0.20312 0.0625,-0.382811 0.093697,-0.539061c0.234402,-0.21875 0.406303,-0.47656 0.515602,-0.773439c0.125,-0.29687 0.234398,-0.60156 0.328201,-0.91406c0.093697,-0.32812 0.195297,-0.64844 0.304699,-0.96094c0.125,-0.32812 0.296799,-0.61718 0.515598,-0.86718l0,-0.07032c0,-0.07812 -0.0313,-0.125 -0.0938,-0.14062c-0.0625,-0.03125 -0.0937,-0.08594 -0.0937,-0.16406c0.015602,-0.01563 0.023399,-0.03125 0.023399,-0.04688c0.1875,-0.07812 0.328201,-0.20312 0.421902,-0.375c0.0937,-0.1875 0.234402,-0.32031 0.421902,-0.39844c0.328098,0.26563 0.617199,0.42969 0.867199,0.49219c0.25,0.04688 0.578098,0.08594 0.984299,0.11719c0.203201,0.21875 0.3125,0.48438 0.328201,0.79688c0.0312,0.29687 0.085899,0.59374 0.163998,0.89062c0.125,0.5 0.257801,0.99219 0.398502,1.47656c0.1562,0.46875 0.273399,0.95313 0.351498,1.45313c0.046902,0.296869 0.132801,0.578119 0.257801,0.84375c0.125,0.265619 0.211002,0.53906 0.2579,0.82026c0.0312,0.2188 0.0312,0.4688 0,0.75c-0.0313,0.265699 0,0.5 0.0937,0.703199l0.164101,0.375c0.078098,0.171801 0.140598,0.351501 0.1875,0.539001c0.0625,0.1875 0.1171,0.375 0.163998,0.5625c0.125,0.4688 0.234402,0.9766 0.328102,1.523499c0.109398,0.5312 0.273499,1.0156 0.492199,1.4531c0.078201,0.1563 0.1954,0.2656 0.351601,0.3281c0.171902,0.0625 0.359402,0.1094 0.5625,0.1406c0.203098,0.015699 0.398399,0.0235 0.585899,0.0235c0.203201,-0.0156 0.375,-0.0235 0.515701,-0.0235l0.234299,0c0.0938,0 0.1875,0.015699 0.2813,0.0469c0.0625,0.125 0.0937,0.2344 0.0937,0.3281c0,0.187599 -0.0625,0.336 -0.1875,0.4454c-0.125,0.109299 -0.1875,0.234299 -0.1875,0.375c0,0.0781 0.0313,0.164 0.0938,0.257799c-0.0625,-0.0156 -0.1563,-0.0235 -0.2813,-0.0235c-0.359299,0 -0.710899,0.0625 -1.054699,0.1875c0.125,0.265701 0.289101,0.492201 0.492199,0.679701c0.2188,0.1719 0.4454,0.336 0.679699,0.492199c0.156303,-0.125 0.320301,-0.1875 0.492203,-0.1875c0.1875,0 0.359398,0.046902 0.515598,0.1406c0.171902,0.078201 0.351601,0.117201 0.539101,0.117201c0.140598,0 0.242199,-0.023399 0.304699,-0.070301c0.125,0.1406 0.226501,0.289101 0.304703,0.445301c0.078098,0.1406 0.179699,0.2735 0.304699,0.3985zm-7.336002,-3.75c-0.031197,-0.265701 -0.085899,-0.453201 -0.163998,-0.562501c-0.0625,-0.125 -0.117199,-0.273499 -0.164101,-0.445399c-0.0625,-0.2187 -0.109402,-0.4531 -0.140598,-0.7031c-0.015602,-0.25 -0.046902,-0.4922 -0.093803,-0.726501c-0.109398,-0.5313 -0.234398,-1.0625 -0.375,-1.5938c-0.125,-0.5312 -0.288998,-1.0469 -0.492199,-1.5469c0.0625,-0.0937 0.0938,-0.1797 0.0938,-0.2578l0,-0.0703c-0.140598,-0.1562 -0.242199,-0.3437 -0.304699,-0.5625c-0.0625,-0.23436 -0.125,-0.46092 -0.1875,-0.67968c-0.046902,-0.23437 -0.117199,-0.445311 -0.210899,-0.632811c-0.078201,-0.203119 -0.211002,-0.367189 -0.398502,-0.492189c-0.046799,0.09376 -0.070297,0.20313 -0.070297,0.32813c0,0.10937 0.007797,0.21094 0.023499,0.30469c0.0312,0.09375 0.046799,0.19531 0.046799,0.30468c-0.156197,0.07813 -0.273399,0.20313 -0.351498,0.375c-0.0625,0.15626 -0.171902,0.28126 -0.328201,0.375c-0.125,0.49998 -0.304699,0.97658 -0.538998,1.42968c-0.234402,0.4375 -0.484402,0.875 -0.75,1.3125c-0.25,0.4375 -0.492203,0.8828 -0.726601,1.3359c-0.234402,0.437599 -0.421902,0.898499 -0.562502,1.382899c-0.203098,0.1406 -0.343699,0.3203 -0.4219,0.539001c-0.0625,0.2188 -0.093699,0.4375 -0.093699,0.6563c0.140598,0.0781 0.2969,0.125 0.468699,0.1406c0.1875,0 0.367201,0 0.539101,0c0.171902,0 0.335899,0.0156 0.492199,0.0469c0.1562,0.0312 0.296902,0.109301 0.421902,0.234301c0.203098,-0.062401 0.421799,-0.1015 0.6562,-0.1171c0.25,-0.031301 0.453098,-0.101601 0.609398,-0.211c0.3125,0.1094 0.648399,0.164101 1.007801,0.164101c0.1875,0 0.367199,-0.0156 0.539101,-0.046902c0.1875,-0.031199 0.367199,-0.070299 0.538998,-0.117199c0.140602,0.0313 0.25,0.086 0.328201,0.164101c0.078102,0.0625 0.195301,0.085899 0.351501,0.070299c0.078098,-0.0625 0.125,-0.125 0.140598,-0.1875c0.015701,-0.0781 0.054699,-0.148399 0.117199,-0.210899zm36.6563,1.382799c-0.031296,0.234301 -0.117195,0.414 -0.257797,0.539c-0.125,0.125 -0.273499,0.242201 -0.445404,0.351601c-0.078094,-0.0156 -0.156197,-0.023399 -0.234299,-0.023399c-0.0625,-0.015701 -0.132797,-0.0235 -0.210999,-0.0235c-0.484299,-0.0156 -0.945297,0.0469 -1.382797,0.1875c-0.421906,0.140699 -0.859299,0.242199 -1.3125,0.304699c-0.156204,0.031301 -0.304703,0.046902 -0.445305,0.046902c-0.125,-0.0156 -0.257797,-0.007801 -0.398399,0.023399c-0.5,0.0781 -1.031296,0.140699 -1.593796,0.1875c-0.5625,0.0469 -1.125,0.1094 -1.6875,0.1875c-0.5625,0.0625 -1.117203,0.1485 -1.664001,0.257799c-0.5313,0.093801 -1.0313,0.2344 -1.5,0.4219c-0.046902,-0.031199 -0.0938,-0.0625 -0.140701,-0.093699c-0.046799,-0.0469 -0.101498,-0.070301 -0.163998,-0.070301c-0.156303,0 -0.304703,0.023401 -0.445301,0.070301c-0.140701,0.046799 -0.2813,0.0625 -0.421902,0.046799c-0.1563,0.093801 -0.328098,0.164101 -0.515598,0.211c-0.171902,0.0312 -0.351601,0.0625 -0.539101,0.0937c-0.171902,0.0156 -0.3438,0.0469 -0.515598,0.0938c-0.171902,0.046801 -0.336002,0.132801 -0.492203,0.257801c-0.125,-0.0625 -0.2813,-0.093801 -0.4688,-0.093801c-0.171799,-0.0156 -0.288998,-0.0781 -0.351498,-0.1875c-0.359402,0.1719 -0.742203,0.281301 -1.148502,0.328201c-0.390598,0.046799 -0.788998,0.0625 -1.195301,0.046799c-0.265598,-0.0156 -0.570297,-0.054699 -0.913998,-0.1171c-0.3438,-0.062599 -0.6875,-0.1485 -1.0313,-0.2579c-0.3437,-0.125 -0.664001,-0.2656 -0.960899,-0.421799c-0.296902,-0.1719 -0.523502,-0.375 -0.679703,-0.6094c-0.109398,-0.156301 -0.1875,-0.3281 -0.234398,-0.5156c-0.046902,-0.1875 -0.1562,-0.328201 -0.328102,-0.4219c0.046902,-0.359402 0.101501,-0.711 0.164101,-1.054701c0.062401,-0.3437 0.125,-0.695299 0.187401,-1.054701c0.312599,-0.265598 0.609398,-0.5469 0.890701,-0.843699c0.281197,-0.2969 0.546898,-0.6094 0.796898,-0.9375c0.296799,-0.140699 0.570301,-0.3125 0.820301,-0.515699c0.265598,-0.2031 0.523399,-0.4062 0.773399,-0.609301c0.265598,-0.2188 0.523399,-0.4297 0.773399,-0.6328c0.265701,-0.203199 0.546902,-0.382899 0.8438,-0.5391c0.046902,-0.1094 0.109402,-0.1953 0.1875,-0.2578c0.0937,-0.0781 0.1875,-0.148499 0.2812,-0.210999c0.0938,-0.0781 0.179699,-0.1562 0.257801,-0.234301c0.078201,-0.0938 0.1329,-0.203199 0.164101,-0.328199c0.546898,-0.3281 1.023499,-0.7422 1.429699,-1.2422c0.4062,-0.49995 0.671902,-1.06245 0.796902,-1.68745c-0.265701,-0.21875 -0.570301,-0.35937 -0.914101,-0.42187c-0.328102,-0.07813 -0.671902,-0.13282 -1.0312,-0.16407c-0.3125,-0.01562 -0.640701,-0.01562 -0.984402,0c-0.328098,0.015631 -0.664101,0.007811 -1.007797,-0.02343c-0.343803,0.10937 -0.703201,0.17968 -1.078201,0.21093c-0.359299,0.03125 -0.7187,0.0625 -1.078102,0.09375c-0.359299,0.015631 -0.718697,0.0625 -1.078098,0.140631c-0.3438,0.0625 -0.679699,0.1875 -1.007801,0.375c-0.0625,0 -0.125,-0.007811 -0.1875,-0.02344c-0.046898,-0.01563 -0.101601,-0.02344 -0.164101,-0.02344c-0.5,-0.015619 -0.968697,0.08594 -1.406197,0.30469c-0.4375,0.20312 -0.867203,0.40625 -1.289101,0.60938c-0.0312,0.0625 -0.046902,0.10937 -0.046902,0.14062c0,0.09375 0.015701,0.1875 0.046902,0.2813c0.046898,0.0781 0.070297,0.164001 0.070297,0.2578c-0.015598,0.0156 -0.023399,0.0312 -0.023399,0.046801c0,0.015699 -0.007797,0.0313 -0.023399,0.0469c-0.015701,0.0781 -0.039101,0.148499 -0.0704,0.2109c-0.015598,0.062599 -0.038998,0.132899 -0.070301,0.210999c-0.171898,0.5 -0.265598,0.9922 -0.281197,1.4766c-0.015701,0.4062 -0.015701,0.804601 0,1.1953c0.015598,0.3906 0.015598,0.789001 0,1.1953c-0.031303,0.5 -0.109402,0.9687 -0.234402,1.4062c0.078098,0.375 0.148399,0.7735 0.210899,1.195299c0.0625,0.406301 0.140701,0.8125 0.234402,1.218801c0.0938,0.406199 0.203098,0.804699 0.328098,1.195299c0.140701,0.375 0.320301,0.7344 0.539101,1.0781c-0.015598,0.0313 -0.007801,0.054699 0.023399,0.070299c0.0313,0.015701 0.0625,0.0235 0.0938,0.0235l0.1875,0c0.078102,0 0.109402,0.0312 0.0937,0.0937c0.0313,0.0469 0.054699,0.0938 0.0704,0.1406c0.015602,0.0313 0.046799,0.062599 0.0937,0.0938c0.0313,0.0469 0.0313,0.1094 0,0.1875c-0.015598,0.3125 -0.0937,0.601601 -0.234402,0.867201c-0.140598,0.265598 -0.226498,0.554699 -0.257797,0.867199c-0.1875,0.0469 -0.359402,0.070301 -0.515602,0.070301c-0.265598,-0.0156 -0.5,-0.093801 -0.703098,-0.234402c-0.203201,-0.125 -0.390701,-0.281199 -0.5625,-0.468699c-0.171902,-0.1875 -0.336002,-0.375 -0.492199,-0.5625c-0.156303,-0.203201 -0.328102,-0.375 -0.515701,-0.515701c-0.109299,-0.4375 -0.2187,-0.921799 -0.328102,-1.4531c-0.093697,-0.531199 -0.257797,-0.9844 -0.492199,-1.3594c0.0625,-0.1406 0.0938,-0.3125 0.0938,-0.5156c0.015602,-0.3125 -0.015598,-0.617199 -0.0938,-0.914c-0.0625,-0.312599 -0.078098,-0.625 -0.046799,-0.937599c0,-0.171801 0.015598,-0.3437 0.046799,-0.5156c0.046902,-0.171801 0.078201,-0.3437 0.0938,-0.5156c0.015602,-0.2656 -0.015598,-0.5234 -0.0938,-0.7734c-0.0625,-0.25 -0.085899,-0.5078 -0.070301,-0.773499c0.015602,-0.125 0.039101,-0.2422 0.070301,-0.351501c0.046902,-0.125 0.109402,-0.2344 0.1875,-0.328199c-0.078098,-0.1875 -0.101498,-0.3672 -0.070301,-0.539001c0.015701,-0.2656 0.046902,-0.5156 0.093803,-0.75c0.046898,-0.2344 0.078098,-0.4688 0.093697,-0.703199c0,-0.125 -0.007797,-0.242101 -0.023399,-0.351501c-0.015598,-0.125 -0.039101,-0.2422 -0.070297,-0.3516l-0.211002,-0.0703c-0.0937,0 -0.1875,0.0234 -0.2812,0.0703c-0.078098,0.0469 -0.148499,0.1016 -0.210899,0.1641c-0.062599,0.0625 -0.117199,0.1172 -0.164101,0.164001c-0.046898,0.0313 -0.0938,0.0469 -0.140598,0.0469c-0.0313,0 -0.070301,0 -0.117199,0c-0.031303,-0.0156 -0.0625,-0.0234 -0.093803,-0.0234c-0.031197,0 -0.093697,0.0312 -0.1875,0.0937c-0.078098,0.0625 -0.179699,0.1328 -0.304699,0.210999c-0.109299,0.0625 -0.2187,0.1328 -0.328098,0.2109c-0.109402,0.0625 -0.195301,0.1016 -0.257801,0.1172c-0.171902,-0.0313 -0.3125,-0.0859 -0.421902,-0.1641c-0.093697,-0.0937 -0.1875,-0.179601 -0.281197,-0.2578c-0.078102,-0.0937 -0.164101,-0.171801 -0.257801,-0.2344c-0.0938,-0.0781 -0.211002,-0.109301 -0.351601,-0.0937c-0.046902,-0.0937 -0.070301,-0.1953 -0.070301,-0.3047c-0.015598,-0.1094 -0.015598,-0.2187 0,-0.32811l0,-0.375c0.109402,-0.203131 0.257801,-0.36719 0.445301,-0.49219c0.171902,-0.14062 0.359402,-0.25781 0.5625,-0.35156l0.609402,-0.28125c0.203098,-0.09375 0.390598,-0.21094 0.5625,-0.35157l0.210899,0c0.2813,0.01563 0.523399,-0.039061 0.726601,-0.16406c0.218697,-0.125 0.421799,-0.26562 0.609398,-0.42187c0.187401,-0.17188 0.375,-0.34375 0.562401,-0.51563c0.203201,-0.17187 0.421898,-0.30468 0.6563,-0.39844c0.171902,0.07813 0.351601,0.14844 0.539101,0.21094c0.1875,0.04688 0.382801,0.07813 0.585899,0.09375c0.203098,0 0.414101,-0.03125 0.632801,-0.09375c0.2188,-0.0625 0.390598,-0.17968 0.515598,-0.35156c0.078201,0.03125 0.140701,0.05469 0.1875,0.07031c0.0625,0 0.132801,0 0.211002,0c0.234398,0.01563 0.468697,-0.01562 0.703098,-0.09375c0.234402,-0.09375 0.460899,-0.20312 0.679699,-0.32812c0.3125,0.01562 0.617203,0 0.914001,-0.04688c0.312599,-0.0625 0.617199,-0.125 0.914101,-0.1875c0.3125,-0.0625 0.617199,-0.11718 0.914101,-0.16406c0.3125,-0.0625 0.625,-0.08594 0.9375,-0.07031c0.515598,0.01562 1.023399,-0.03125 1.523399,-0.14063c0.5,-0.10937 1.007797,-0.14844 1.523499,-0.11718c0.359299,0.01562 0.710899,0.04687 1.0546,0.09374c0.359402,0.03126 0.7188,0.03907 1.078201,0.02344c0.203098,0.09375 0.382801,0.17969 0.538998,0.25782c0.171902,0.0625 0.382801,0.07812 0.632801,0.04687c0.5,0.42187 0.953201,0.91406 1.359402,1.47656l0,0.39844c-0.015602,0.35937 -0.078102,0.71094 -0.1875,1.05469c-0.109402,0.34375 -0.242203,0.6875 -0.398399,1.03125c-0.140701,0.32811 -0.296902,0.65621 -0.468803,0.984409c-0.171898,0.3125 -0.335899,0.625 -0.492199,0.9375c-1.015598,0.921801 -2.0312,1.8359 -3.046799,2.742101c-1.015701,0.9063 -2.0625,1.7813 -3.140701,2.625c-0.0312,0.1563 -0.078098,0.2969 -0.140598,0.4219c-0.046902,0.125 -0.078102,0.257799 -0.0937,0.3985c0,0.0781 0.007801,0.1406 0.023399,0.1875c0.109402,0.031199 0.203098,0.093699 0.2813,0.1875c0.0937,0.0781 0.125,0.1875 0.0937,0.3281l0.210899,0c0.078201,0 0.117199,0.031199 0.117199,0.093699l0.375,0.0235c0.593803,0.0312 1.1875,0.0156 1.781303,-0.0469c0.593697,-0.0625 1.1875,-0.132799 1.781197,-0.210899c0.609402,-0.078201 1.211002,-0.1485 1.804703,-0.211c0.5938,-0.0781 1.1875,-0.125 1.7813,-0.1406c0.140598,-0.0469 0.289001,-0.085899 0.445297,-0.117201c0.156204,-0.031199 0.296799,-0.093699 0.421799,-0.1875l0.070404,0c0.109299,0 0.1875,0.031301 0.234299,0.093801c0.0625,0.0625 0.148499,0.1015 0.257912,0.117199c0.078087,0 0.156189,-0.015699 0.234299,-0.0469c0.093788,-0.0313 0.1875,-0.054699 0.281288,-0.070299c0.218712,-0.0625 0.445313,-0.101601 0.679703,-0.117201c0.25,-0.0156 0.492096,-0.039101 0.726509,-0.070299c0.906288,-0.078201 1.804688,-0.125 2.69529,-0.140701c0.890701,-0.031199 1.781311,-0.148399 2.671898,-0.3515c0.078102,0.109301 0.1875,0.1875 0.328102,0.234301c0.140701,0.0313 0.289101,0.0704 0.445297,0.117199c0.156303,0.031301 0.296913,0.0704 0.421913,0.117201c0.140709,0.0469 0.23439,0.1406 0.281288,0.2813zm10.781204,2.367201c-0.046799,0.218699 -0.148399,0.398399 -0.304703,0.539c-0.140602,0.125 -0.3125,0.226601 -0.515602,0.304699c-0.203094,0.0781 -0.414101,0.132801 -0.632797,0.164101c-0.203102,0.0156 -0.390602,0.023399 -0.5625,0.023399c-0.078102,0 -0.156197,0 -0.234398,0c-0.0625,-0.015598 -0.132805,-0.023399 -0.210899,-0.023399c-0.078102,0 -0.117203,0.039 -0.117203,0.117201c0,0.0781 -0.039101,0.132799 -0.117203,0.164c-0.078094,-0.0312 -0.156197,-0.054701 -0.234398,-0.070301c-0.078102,-0.015598 -0.156197,-0.023399 -0.234299,-0.023399c-0.109398,0 -0.218803,0.007801 -0.328201,0.023399c-0.093697,0.0156 -0.1875,0.023401 -0.281197,0.023401c-0.125,0 -0.218803,-0.0156 -0.281303,-0.046801c-0.046799,-0.0313 -0.093697,-0.0625 -0.140602,-0.0938c-0.031197,-0.046801 -0.070297,-0.0937 -0.117195,-0.1406c-0.031204,-0.0469 -0.085899,-0.085899 -0.164001,-0.117201c-0.109398,-0.0469 -0.203201,-0.054699 -0.281303,-0.023399c-0.0625,0.0312 -0.163994,-0.0156 -0.304695,-0.1406c-0.1875,-0.1563 -0.351501,-0.3438 -0.492203,-0.562599c-0.125,-0.234301 -0.25,-0.4765 -0.375,-0.7265c-0.125,-0.25 -0.257797,-0.5 -0.398399,-0.75c-0.140602,-0.25 -0.304703,-0.468801 -0.492203,-0.656301l-0.1875,0c-0.281197,0 -0.476601,0.117201 -0.585899,0.351601c-0.078087,-0.0469 -0.156296,-0.101601 -0.234398,-0.164101c-0.078102,-0.0781 -0.164101,-0.1406 -0.257797,-0.1875c-0.359406,0.1094 -0.734406,0.203201 -1.125,0.281301c-0.390602,0.078098 -0.781303,0.117199 -1.171906,0.117199l-0.328094,0c-0.093803,0 -0.195305,-0.015699 -0.304703,-0.0469c-0.156197,0.0625 -0.296898,0.1406 -0.421898,0.2344c-0.125,0.0781 -0.265602,0.117201 -0.421906,0.117201c-0.093697,0 -0.203094,-0.031301 -0.328094,-0.093801c-0.093704,0 -0.140602,0.039101 -0.140602,0.117201c0.015602,0.0781 -0.031303,0.117201 -0.140602,0.117201l-0.210999,0c-0.218697,0 -0.4375,0.007799 -0.656197,0.023399c-0.203102,0.0156 -0.414101,0.0235 -0.632805,0.0235c-0.296898,0 -0.601601,-0.039101 -0.914101,-0.117201c-0.078094,0.0469 -0.163994,0.070301 -0.257797,0.070301c-0.0625,0.031199 -0.109398,0.085899 -0.140602,0.164c-0.031296,0.062599 -0.0625,0.125 -0.093796,0.187599c-0.031204,0.046801 -0.078102,0.0937 -0.140602,0.1406c-0.046898,0.0312 -0.117203,0.039 -0.210899,0.023399c-0.031303,0.1875 -0.109398,0.336 -0.234398,0.445301c-0.125,0.1094 -0.1875,0.2735 -0.1875,0.492199c-0.171906,0.093801 -0.3125,0.210901 -0.421906,0.351601c-0.109398,0.1406 -0.218697,0.289 -0.328094,0.445301c-0.109406,0.156199 -0.226601,0.304699 -0.351601,0.445299c-0.109406,0.1406 -0.25,0.25 -0.421799,0.3281c-0.078201,0.0938 -0.101601,0.242199 -0.070404,0.445299c-0.171799,0.140701 -0.382797,0.265701 -0.632797,0.375c-0.25,0.1094 -0.484406,0.164101 -0.703102,0.164101c-0.453102,0 -0.765602,-0.242201 -0.9375,-0.726601c0,-0.156199 0.015602,-0.320299 0.046898,-0.492199c0.015602,-0.187401 0.046906,-0.359301 0.093704,-0.5156c0.046898,-0.171801 0.117195,-0.320301 0.210999,-0.445301c0.093697,-0.140598 0.226501,-0.242199 0.398399,-0.304699c0,-0.1406 -0.046898,-0.2344 -0.140602,-0.2812c-0.093796,-0.0625 -0.132797,-0.164101 -0.117195,-0.304699c0.421898,-0.2031 0.788994,-0.468801 1.101601,-0.796902c0.312393,-0.328098 0.593697,-0.6719 0.843697,-1.031199c0.265602,-0.375 0.531303,-0.75 0.796898,-1.125c0.265602,-0.375 0.5625,-0.711 0.890602,-1.007801l0,-0.4922c0.468803,-0.5 0.773399,-1.0625 0.914101,-1.6875c0.171799,-0.0313 0.281197,-0.1094 0.328102,-0.2344c0.0625,-0.125 0.093697,-0.273499 0.093697,-0.4453c0.078201,0 0.125,-0.0313 0.140701,-0.0938c0.031197,-0.0781 0.101501,-0.101501 0.210899,-0.0703c0.140602,-0.375 0.296898,-0.7187 0.468697,-1.0312c0.171906,-0.3125 0.343803,-0.625 0.515701,-0.9375c0.171913,-0.328199 0.320305,-0.6641 0.445305,-1.0078c0.140594,-0.3438 0.242195,-0.726609 0.304695,-1.14849c0.218704,-0.015619 0.335899,-0.117189 0.351501,-0.304689c0.031303,-0.20312 0.0625,-0.382811 0.093803,-0.539061c0.234398,-0.21875 0.406197,-0.47656 0.515594,-0.773439c0.125,-0.29687 0.234406,-0.60156 0.328102,-0.91406c0.093803,-0.32812 0.195297,-0.64844 0.304703,-0.96094c0.125,-0.32812 0.296898,-0.61718 0.515594,-0.86718l0,-0.07032c0,-0.07812 -0.031197,-0.125 -0.093697,-0.14062c-0.0625,-0.03125 -0.093697,-0.08594 -0.093697,-0.16406c0.015594,-0.01563 0.023399,-0.03125 0.023399,-0.04688c0.1875,-0.07812 0.328094,-0.20312 0.421898,-0.375c0.093697,-0.1875 0.234299,-0.32031 0.421799,-0.39844c0.328201,0.26563 0.617203,0.42969 0.867203,0.49219c0.25,0.04688 0.578094,0.08594 0.984398,0.11719c0.203102,0.21875 0.3125,0.48438 0.328102,0.79688c0.031296,0.29687 0.085999,0.59374 0.164101,0.89062c0.125,0.5 0.257797,0.99219 0.398399,1.47656c0.156296,0.46875 0.273499,0.95313 0.351601,1.45313c0.046898,0.296869 0.132797,0.578119 0.257797,0.84375c0.125,0.265619 0.210899,0.53906 0.257797,0.82026c0.031303,0.2188 0.031303,0.4688 0,0.75c-0.031197,0.265699 0,0.5 0.093803,0.703199l0.164001,0.375c0.078087,0.171801 0.140701,0.351501 0.1875,0.539001c0.0625,0.1875 0.117195,0.375 0.164101,0.5625c0.125,0.4688 0.234398,0.9766 0.328094,1.523499c0.109406,0.5312 0.273392,1.0156 0.492203,1.4531c0.078102,0.1563 0.195297,0.2656 0.351601,0.3281c0.171799,0.0625 0.359299,0.1094 0.5625,0.1406c0.203102,0.015699 0.398399,0.0235 0.585899,0.0235c0.203102,-0.0156 0.375,-0.0235 0.515602,-0.0235l0.234398,0c0.093803,0 0.1875,0.015699 0.281197,0.0469c0.062607,0.125 0.093803,0.2344 0.093803,0.3281c0,0.187599 -0.0625,0.336 -0.1875,0.4454c-0.125,0.109299 -0.1875,0.234299 -0.1875,0.375c0,0.0781 0.031197,0.164 0.093803,0.257799c-0.062614,-0.0156 -0.156303,-0.0235 -0.281303,-0.0235c-0.359398,0 -0.710899,0.0625 -1.054703,0.1875c0.125,0.265701 0.289101,0.492201 0.492203,0.679701c0.218803,0.1719 0.445297,0.336 0.679703,0.492199c0.156197,-0.125 0.320297,-0.1875 0.492195,-0.1875c0.1875,0 0.359299,0.046902 0.515602,0.1406c0.171898,0.078201 0.351601,0.117201 0.539101,0.117201c0.140602,0 0.242203,-0.023399 0.304596,-0.070301c0.125,0.1406 0.226601,0.289101 0.304703,0.445301c0.078201,0.1406 0.179703,0.2735 0.304703,0.3985zm-7.335899,-3.75c-0.031303,-0.265701 -0.085899,-0.453201 -0.164101,-0.562501c-0.0625,-0.125 -0.117203,-0.273499 -0.164001,-0.445399c-0.0625,-0.2187 -0.109398,-0.4531 -0.140701,-0.7031c-0.015602,-0.25 -0.046799,-0.4922 -0.093697,-0.726501c-0.109406,-0.5313 -0.234406,-1.0625 -0.375,-1.5938c-0.125,-0.5312 -0.289101,-1.0469 -0.492203,-1.5469c0.0625,-0.0937 0.093803,-0.1797 0.093803,-0.2578l0,-0.0703c-0.140701,-0.1562 -0.242203,-0.3437 -0.304703,-0.5625c-0.0625,-0.23436 -0.125,-0.46092 -0.1875,-0.67968c-0.046898,-0.23437 -0.117203,-0.445311 -0.210999,-0.632811c-0.078102,-0.203119 -0.210899,-0.367189 -0.398399,-0.492189c-0.046906,0.09376 -0.070305,0.20313 -0.070305,0.32813c0,0.10937 0.007805,0.21094 0.023399,0.30469c0.031303,0.09375 0.046906,0.19531 0.046906,0.30468c-0.156303,0.07813 -0.273399,0.20313 -0.351601,0.375c-0.0625,0.15626 -0.171799,0.28126 -0.328102,0.375c-0.125,0.49998 -0.304703,0.97658 -0.539101,1.42968c-0.234299,0.4375 -0.484299,0.875 -0.75,1.3125c-0.25,0.4375 -0.492203,0.8828 -0.726501,1.3359c-0.234398,0.437599 -0.421898,0.898499 -0.5625,1.382899c-0.203201,0.1406 -0.343796,0.3203 -0.421898,0.539001c-0.0625,0.2188 -0.093697,0.4375 -0.093697,0.6563c0.140594,0.0781 0.296799,0.125 0.468697,0.1406c0.1875,0 0.367203,0 0.539101,0c0.171799,0 0.335899,0.0156 0.492203,0.0469c0.156197,0.0312 0.296799,0.109301 0.421799,0.234301c0.203201,-0.062401 0.421898,-0.1015 0.656296,-0.1171c0.25,-0.031301 0.453102,-0.101601 0.609299,-0.211c0.312607,0.1094 0.648506,0.164101 1.007904,0.164101c0.1875,0 0.367096,-0.0156 0.539001,-0.046902c0.1875,-0.031199 0.367195,-0.070299 0.539101,-0.117199c0.140594,0.0313 0.25,0.086 0.328094,0.164101c0.078102,0.0625 0.195305,0.085899 0.351601,0.070299c0.078102,-0.0625 0.125,-0.125 0.140602,-0.1875c0.015602,-0.0781 0.054703,-0.148399 0.117203,-0.210899zm21.773399,-5.484401c-0.0625,0.1562 -0.125,0.3047 -0.1875,0.4453c-0.0625,0.1406 -0.109406,0.2969 -0.140602,0.4688c-0.109398,0.0781 -0.234398,0.1406 -0.375,0.187401c-0.125,0.0313 -0.257797,0.070399 -0.398399,0.1172c-0.140701,0.0313 -0.273499,0.078199 -0.398499,0.140699c-0.109299,0.046801 -0.195305,0.125 -0.257805,0.234301c-0.046898,0.2344 -0.070297,0.453199 -0.070297,0.6563c0,0.2656 0.046898,0.4922 0.140602,0.6797c-0.046799,0.1406 -0.078102,0.289001 -0.093704,0.4453c-0.015701,0.1562 -0.023499,0.3047 -0.023499,0.4453c0,0.5156 0.0625,1.0312 0.1875,1.5469c0.125,0.5 0.195297,1.007801 0.210999,1.523399c0,0.0781 -0.007797,0.164101 -0.023499,0.257801c-0.015602,0.0938 -0.023399,0.179699 -0.023399,0.257799c0,0.328201 0.125,0.5469 0.375,0.656301c-0.046898,0.078098 -0.070297,0.148399 -0.070297,0.210899c0,0.125 0.015594,0.2344 0.046898,0.3281c0.031197,0.0938 0.039001,0.1954 0.023399,0.304699c0.078102,0.156301 0.156197,0.2969 0.234398,0.4219c0.078102,0.109402 0.132805,0.25 0.164001,0.421902c-0.109299,0.218699 -0.242203,0.4219 -0.398399,0.6094c-0.156197,0.171799 -0.265602,0.3906 -0.328102,0.656199c-0.0625,-0.015598 -0.132797,-0.023399 -0.210999,-0.023399c-0.109299,0 -0.195297,0.023399 -0.257797,0.070301c-0.0625,0.0469 -0.117203,0.101599 -0.164001,0.164c-0.031303,0.078199 -0.07029,0.1485 -0.117203,0.211c-0.046898,0.078098 -0.109398,0.132799 -0.1875,0.164l-0.070297,0c-0.078201,0.015699 -0.148499,0.0079 -0.210999,-0.023401c-0.046906,-0.015598 -0.093704,-0.023399 -0.140602,-0.023399c-0.031303,0 -0.093697,0.0156 -0.1875,0.046801c-0.125,-0.1562 -0.210899,-0.3437 -0.257797,-0.562401c-0.046906,-0.203199 -0.070305,-0.4063 -0.070305,-0.6094c0,-0.2188 0.031204,-0.414101 0.093704,-0.586c-0.171799,-0.1406 -0.281204,-0.3515 -0.328102,-0.632799c-0.031303,-0.2812 -0.070297,-0.5156 -0.117203,-0.7031c-0.125,-0.5781 -0.273399,-1.1406 -0.445297,-1.6875c-0.156197,-0.5469 -0.25,-1.1094 -0.281197,-1.6875c-0.015701,-0.2187 -0.023506,-0.4297 -0.023506,-0.6328l0,-1.2188c0,-0.2031 0.007805,-0.3984 0.023506,-0.5859c0,-0.1406 0.007797,-0.2734 0.023399,-0.3984c0.031197,-0.140699 0.046898,-0.2813 0.046898,-0.4219c0,-0.1875 -0.0625,-0.3672 -0.1875,-0.5391c-1.109398,0.0469 -2.164101,0.25 -3.164101,0.6094c-0.984398,0.3438 -1.968697,0.7578 -2.953102,1.2422c-0.0625,0.3594 -0.101601,0.7109 -0.117195,1.0547c-0.015602,0.3437 -0.023399,0.6953 -0.023399,1.054701l0,1.031199c0,0.3906 0.015594,0.718801 0.046799,0.984402c0.078201,0.453098 0.304695,0.804699 0.679695,1.054699c0.390602,0.234301 0.781303,0.414 1.171906,0.539c-0.015602,0.2344 -0.0625,0.4375 -0.140602,0.6094c-0.078201,0.156301 -0.179703,0.304701 -0.304703,0.445301c-0.109398,0.125 -0.234398,0.25 -0.375,0.375c-0.140701,0.125 -0.281296,0.2656 -0.421898,0.4219c-0.125,-0.0781 -0.25,-0.132799 -0.375,-0.164101c-0.125,-0.031199 -0.257797,-0.046799 -0.398399,-0.046799c-0.140701,-0.015701 -0.281303,-0.031301 -0.421898,-0.0469c-0.140602,-0.0156 -0.281303,-0.046902 -0.421906,-0.093801l-0.515594,-0.7031c-0.171906,-0.2344 -0.359406,-0.468699 -0.5625,-0.703098l0,-0.210901c0,-0.4219 -0.078102,-0.828199 -0.234406,-1.2188c-0.156197,-0.3906 -0.273399,-0.789101 -0.351494,-1.195299c0.046799,-0.1406 0.078094,-0.281301 0.093697,-0.421902c0.015602,-0.140598 0.023399,-0.289 0.023399,-0.445299c0,-0.3125 -0.015602,-0.6172 -0.046799,-0.9141c-0.015701,-0.296801 -0.007904,-0.5937 0.023399,-0.8906l-0.117203,0c-0.140594,0 -0.289101,0.0391 -0.445297,0.1172c-0.156197,0.0625 -0.3125,0.1406 -0.468803,0.2344c-0.140594,0.0781 -0.281197,0.1562 -0.421799,0.2344c-0.125,0.062401 -0.234398,0.0937 -0.328201,0.0937c-0.046799,0 -0.093697,-0.0078 -0.140594,-0.0234c-0.046799,-0.015699 -0.101501,-0.023499 -0.164001,-0.023499c-0.078201,0 -0.171898,0.0313 -0.281303,0.0938c-0.109398,0.0625 -0.226486,0.1328 -0.351486,0.2109c-0.140709,0.0625 -0.281311,0.125 -0.421913,0.1875c-0.140701,0.0625 -0.281296,0.0938 -0.421898,0.0938c-0.218803,0 -0.4375,-0.0938 -0.656189,-0.2813c-0.031311,-0.125 -0.039108,-0.2422 -0.023514,-0.351501c0,-0.1094 0,-0.2266 0,-0.3516c0,-0.125 -0.023399,-0.2578 -0.070297,-0.3984c0.109398,-0.203199 0.257797,-0.3594 0.445297,-0.4688c0.171913,-0.125 0.359413,-0.2344 0.5625,-0.3281c0.1875,-0.1094 0.382805,-0.210999 0.586014,-0.3047c0.203087,-0.1094 0.375,-0.25 0.515587,-0.4219l0.140602,0c0.218803,0 0.414101,-0.0469 0.585899,-0.1406c0.1875,-0.0938 0.398499,-0.1328 0.632904,-0.1172c0.078094,-0.0313 0.132797,-0.1484 0.163994,-0.3516l0.093803,0.023499c0.343697,0 0.648399,-0.1172 0.914001,-0.3516c0.171898,-0.9687 0.3125,-1.9453 0.421898,-2.92968c0.109398,-0.98437 0.164101,-1.96874 0.164101,-2.95312c0,-0.09375 -0.031303,-0.1875 -0.093803,-0.28125c-0.031197,-0.125 -0.046898,-0.24219 -0.046898,-0.35156l0,-0.35157c0,-0.17187 0.007904,-0.35156 0.023499,-0.53906c0.015602,-0.1875 0.054703,-0.375 0.117203,-0.5625c0.156197,-0.09375 0.320297,-0.14062 0.49221,-0.14062c0.203087,0 0.398392,0.03125 0.585892,0.09375c0.203094,0.04687 0.398399,0.08593 0.585899,0.11719c0.140594,0.14062 0.242195,0.29687 0.304695,0.46874c0.078102,0.17188 0.125,0.35157 0.140602,0.53907c0.015701,0.17187 0.015701,0.35156 0,0.53906c0,0.17187 0,0.34375 0,0.51563c0,0.34374 0.039101,0.67968 0.117203,1.00781c0.078094,0.32812 0.117195,0.64843 0.117195,0.96093c0,0.07813 -0.031197,0.14063 -0.093697,0.1875c-0.046898,0.03126 -0.070404,0.13282 -0.070404,0.304689c0,0.171881 0.015701,0.35157 0.046906,0.53907c0.031296,0.1875 0.046898,0.375 0.046898,0.5625c0,0.21872 -0.031197,0.44532 -0.093803,0.67972c-0.062386,0.234301 -0.117096,0.4609 -0.163994,0.6797c0.9375,-0.078199 1.898399,-0.195399 2.882797,-0.3516c0.984398,-0.1563 1.921898,-0.4063 2.8125,-0.75c0.015602,-0.0313 0.023399,-0.0781 0.023399,-0.14064c0,-0.09375 -0.007797,-0.1875 -0.023399,-0.28125c-0.015602,-0.09375 -0.023399,-0.19531 -0.023399,-0.304689c0,-0.1875 0.0625,-0.33593 0.1875,-0.445311c-0.078201,-0.4375 -0.13279,-0.875 -0.164101,-1.3125c-0.031303,-0.4375 -0.046898,-0.875 -0.046898,-1.3125l0,-1.33593c0,-0.4375 -0.007805,-0.875 -0.023399,-1.3125c0.125,-0.07813 0.257797,-0.11719 0.398399,-0.11719c0.171898,0 0.328201,0.04687 0.468796,0.14062c0.156204,0.07813 0.335899,0.11719 0.539001,0.11719c0.140701,0 0.257797,-0.02344 0.351601,-0.07031c0.171898,0.15625 0.289101,0.35937 0.351601,0.60937c0.0625,0.25 0.11721,0.50782 0.164001,0.77344c0.046898,0.26562 0.093796,0.53125 0.140594,0.79688c0.062607,0.25 0.179703,0.45312 0.351601,0.60937l0.023399,0.07031c0,0.0625 -0.031197,0.10938 -0.093697,0.14063c-0.0625,0.03125 -0.093697,0.09375 -0.093697,0.1875l0,0.09375c0.062393,0.25 0.109299,0.50781 0.140594,0.77344c0.031204,0.26562 0.054703,0.539061 0.070305,0.820311c0.031197,0.265619 0.070297,0.53125 0.117195,0.796869c0.046906,0.25 0.132805,0.484381 0.257805,0.70314c0.078094,-0.0156 0.179695,-0.0234 0.304695,-0.0234c0.3125,0 0.554703,0.109301 0.726501,0.3281c0.1875,0.2031 0.351601,0.414001 0.492203,0.6328zm16.335899,-2.62501c-0.094002,0.140619 -0.148003,0.296869 -0.164001,0.46875c-0.015999,0.171869 -0.023003,0.328119 -0.023003,0.46875c0,0.1875 0,0.375 0,0.5625c0.014999,0.171909 0.023003,0.34371 0.023003,0.51561l0,0.3516c-0.030998,0.109301 -0.078003,0.2187 -0.140999,0.3281c-0.062004,0.1094 -0.109001,0.2188 -0.139999,0.3281c-0.219002,0.5781 -0.328003,1.1563 -0.328003,1.7344l0,0.0469c-0.077988,0.1875 -0.156998,0.3594 -0.235001,0.5156c-0.061996,0.1562 -0.125,0.3125 -0.186996,0.4688c-0.063004,0.1406 -0.110001,0.296801 -0.140999,0.4687c-0.031006,0.1563 -0.039001,0.3437 -0.023003,0.5625c-0.219002,0.5469 -0.508003,1.0469 -0.868004,1.5c-0.358994,0.4375 -0.709999,0.8906 -1.053993,1.3594c-0.328003,0.125 -0.633003,0.289 -0.914001,0.492201c-0.265999,0.2031 -0.524002,0.4296 -0.774002,0.6796c-0.484001,0.1563 -0.960999,0.336 -1.429001,0.539099c-0.469002,0.2031 -0.890999,0.476601 -1.265999,0.820301c-0.296997,0.0313 -0.594002,0.078199 -0.890999,0.1406c-0.295998,0.062599 -0.585999,0.1563 -0.867004,0.2813l-0.280998,0c-0.140999,0 -0.241997,-0.0313 -0.305,-0.0937c-0.202988,0.109301 -0.414001,0.187401 -0.632996,0.234301c-0.218002,0.0313 -0.437004,0.0469 -0.656006,0.0469c-0.280998,0 -0.561996,-0.0156 -0.843994,-0.0469c-0.264992,-0.0469 -0.539001,-0.0937 -0.82,-0.1406c-0.156006,-0.2187 -0.375,-0.382799 -0.656006,-0.492201c-0.280998,-0.125 -0.530998,-0.242199 -0.75,-0.3515c-0.452995,-0.625 -0.780998,-1.226599 -0.983994,-1.804699c-0.203606,-0.593801 -0.414604,-1.2579 -0.633301,-1.992201c0.031197,-0.2188 0.085899,-0.4297 0.164101,-0.6328c0.078094,-0.2188 0.109299,-0.453199 0.093697,-0.703199c0.281502,-0.8125 0.648499,-1.546801 1.101501,-2.2031c0.469002,-0.6719 1,-1.3125 1.594002,-1.9219c0,-0.0937 0.014999,-0.171801 0.046997,-0.234301c0.046997,-0.0625 0.054001,-0.1563 0.023003,-0.2813c0.015999,0.0156 0.046997,0.023499 0.093994,0.023499c0.125,0 0.203003,-0.0313 0.234001,-0.0938c0.032005,-0.0781 0.039001,-0.1641 0.024002,-0.2578c0.561996,-0.35939 1.07,-0.77345 1.523003,-1.2422c0.468994,-0.46875 1,-0.85938 1.593994,-1.17188c0.047005,-0.14062 0.125,-0.25781 0.234001,-0.35156c0.110001,-0.09375 0.195999,-0.20312 0.258003,-0.32812c0.5,-0.14063 0.952995,-0.35156 1.359001,-0.63282c0.406998,-0.28124 0.835999,-0.53124 1.290001,-0.75c0.25,-0.14062 0.483994,-0.23437 0.702995,-0.28124c0.234001,-0.0625 0.484001,-0.125 0.75,-0.1875c0.093002,-0.03126 0.179001,-0.05469 0.257004,-0.07032c0.078995,-0.01562 0.163994,-0.02344 0.257996,-0.02344c0.282005,0 0.555,0.05469 0.820999,0.16407c0.264999,0.09375 0.539001,0.14062 0.82,0.14062c0.078003,0 0.141006,0 0.187004,0c0.062996,-0.01562 0.125,-0.03125 0.187996,-0.04687c0.266006,0.32812 0.601006,0.57812 1.008003,0.75c0.093002,0.23437 0.203003,0.4375 0.328003,0.60937c0.139999,0.17188 0.280998,0.34375 0.421997,0.51563c0.139999,0.15625 0.264999,0.33594 0.375,0.53906c0.125,0.1875 0.203003,0.41406 0.234001,0.67969zm-2.344002,1.21875c0,-0.078131 -0.006996,-0.14844 -0.023003,-0.21094c-0.155998,-0.04688 -0.305,-0.10938 -0.445,-0.1875c-0.140999,-0.07812 -0.296997,-0.11719 -0.468994,-0.11719c-0.110001,0 -0.219002,0.02344 -0.328003,0.070311c-0.015999,-0.10937 -0.063004,-0.1875 -0.140999,-0.23437c-0.062004,-0.04687 -0.140999,-0.08594 -0.234001,-0.11719c-0.078003,-0.046869 -0.164001,-0.078119 -0.258003,-0.09375c-0.077995,-0.03125 -0.148994,-0.078119 -0.210999,-0.140619c-0.046997,-0.125 -0.101997,-0.25 -0.164001,-0.375c-0.046997,-0.140631 -0.140999,-0.24219 -0.280998,-0.30469c-0.140999,0.14062 -0.305,0.25781 -0.492996,0.35156c-0.187004,0.078131 -0.382004,0.15625 -0.586006,0.234381c-0.186996,0.078119 -0.373993,0.171869 -0.561996,0.28125c-0.171997,0.109369 -0.32,0.242189 -0.445,0.39843l-0.421997,0c-0.094002,0.17188 -0.227005,0.304689 -0.399002,0.398439c-0.172005,0.078131 -0.32,0.19532 -0.445,0.351561c-0.25,0.12498 -0.484001,0.28128 -0.703003,0.46878c-0.202995,0.1719 -0.405998,0.359301 -0.609001,0.5625c-0.203995,0.1875 -0.406998,0.3828 -0.610001,0.5859c-0.186996,0.2031 -0.389999,0.3906 -0.608994,0.5625c-0.203003,0.4375 -0.43,0.8203 -0.68,1.1484c-0.234001,0.312599 -0.461006,0.632899 -0.68,0.960999c-0.203003,0.3281 -0.382004,0.6875 -0.539001,1.0781c-0.139999,0.375 -0.210999,0.843801 -0.210999,1.406301l0,0.234299c0,0.078201 0.007996,0.156301 0.023994,0.2344c0.203003,0.218801 0.367004,0.4531 0.492004,0.7031c0.140999,0.25 0.366997,0.429701 0.68,0.539101c0.311996,0.125 0.639999,0.179701 0.984001,0.164101c0.360001,-0.015701 0.702995,0.023399 1.030998,0.117199c0.75,-0.140699 1.469002,-0.367199 2.156998,-0.679699c0.703003,-0.328201 1.367004,-0.718801 1.992004,-1.1719c0.093994,-0.0781 0.202995,-0.156301 0.327995,-0.234402c0.125,-0.093699 0.225998,-0.1875 0.305,-0.281199c0.078003,-0.078201 0.139999,-0.164101 0.187004,-0.257801c0.062996,-0.0938 0.125,-0.1797 0.187996,-0.257899c0.125,-0.2031 0.264999,-0.4062 0.422005,-0.609301c0.155998,-0.203199 0.32,-0.390699 0.491997,-0.5625c0.078003,-0.3438 0.179001,-0.6719 0.304001,-0.9844c0.125,-0.3281 0.25,-0.648499 0.375,-0.9609c0.125,-0.312599 0.226997,-0.632899 0.305,-0.960999c0.094002,-0.3281 0.140999,-0.6719 0.140999,-1.0312c0,-0.078199 -0.008003,-0.1641 -0.024002,-0.2578c0,-0.0938 -0.007996,-0.1797 -0.022995,-0.257899c0.125,-0.171801 0.186996,-0.359341 0.186996,-0.56246zm16.734993,6.328159c0,0.1718 -0.062988,0.304601 -0.187988,0.3984c-0.125,0.0781 -0.187012,0.1875 -0.187012,0.3281c0,0.0625 0.031006,0.140699 0.093002,0.2344c-0.218002,0 -0.366989,0.070299 -0.444992,0.210899c-0.078003,0.140701 -0.156006,0.2969 -0.234009,0.468801l-0.304993,0c-0.078003,0 -0.141006,0.015598 -0.186996,0.0469c-0.047012,0.031199 -0.094009,0.0781 -0.141006,0.1406c-0.031006,0.0469 -0.078003,0.125 -0.140991,0.2344c-0.297005,0.0625 -0.586006,0.164 -0.867004,0.304699c-0.266006,0.125 -0.531006,0.2656 -0.797005,0.421801c-0.25,0.1406 -0.507996,0.289101 -0.772995,0.445299c-0.266006,0.140701 -0.539001,0.2579 -0.82,0.351601c-0.141006,0.2344 -0.344002,0.4219 -0.610001,0.5625l-0.07,0c-0.078003,0.0156 -0.149002,0.007799 -0.211006,-0.023399c-0.046997,-0.0469 -0.108994,-0.0704 -0.187996,-0.0704c-0.047005,0 -0.078003,0.0079 -0.093002,0.0235c-0.469002,0.3125 -0.992996,0.468699 -1.570999,0.468699c-0.155998,0 -0.304001,-0.007799 -0.445,-0.023399c-0.140999,-0.0312 -0.289001,-0.0469 -0.445,-0.0469c-0.046997,0 -0.078003,0.015699 -0.094002,0.0469l-0.046997,0.0938c-0.015999,0.0312 -0.039001,0.062401 -0.07,0.0937c-0.015999,0.0313 -0.070999,0.0469 -0.164001,0.0469c-0.171997,0 -0.344002,-0.0235 -0.515999,-0.070299c-0.172005,-0.0469 -0.352005,-0.054701 -0.539001,-0.0235c-0.359001,-0.2031 -0.640999,-0.398399 -0.844002,-0.585899c-0.202995,-0.1875 -0.389999,-0.468801 -0.561996,-0.843801c-0.078003,-0.171799 -0.188004,-0.335899 -0.328003,-0.4921c-0.125,-0.1563 -0.219002,-0.328199 -0.281998,-0.515699c-0.014999,-0.0625 -0.039001,-0.1719 -0.07,-0.3281c-0.030998,-0.1719 -0.062004,-0.351601 -0.094002,-0.539101c-0.030998,-0.1875 -0.061996,-0.3671 -0.093002,-0.539c-0.015999,-0.1719 -0.023994,-0.289101 -0.023994,-0.351601c0,-0.1875 0.007996,-0.367199 0.023994,-0.539099c0.031006,-0.187401 0.062004,-0.375 0.093002,-0.562401c0.094002,-0.5938 0.156998,-1.187599 0.188004,-1.7813c0.046997,-0.6094 0.178993,-1.1953 0.397995,-1.7578c-0.030998,-0.1719 -0.046997,-0.3359 -0.046997,-0.4922l0,-0.5156c0,-0.2969 -0.039001,-0.5469 -0.117004,-0.75c0.125,-0.20315 0.188004,-0.429709 0.188004,-0.679709c0,-0.28125 -0.116997,-0.445311 -0.351997,-0.49219l0,-0.07031c0,-0.328131 -0.109001,-0.58594 -0.328003,-0.77344c0,-0.54687 0.133003,-0.95313 0.398003,-1.21875c0.281998,-0.28125 0.648994,-0.52344 1.101997,-0.72656c0.063011,-0.09375 0.085999,-0.17188 0.07,-0.23438c0.110001,0.03125 0.210999,0.0625 0.305,0.09375c0.094002,0.03125 0.188011,0.04688 0.280998,0.04688c0.157005,0 0.297005,-0.02344 0.422005,-0.07031c0.046997,0.1875 0.163994,0.30468 0.351997,0.35156c0.203003,0.03125 0.366997,0.07812 0.491997,0.14062l0,0.30469c0,0.48437 0.117004,0.94531 0.351006,1.38281c-0.062004,0.125 -0.101006,0.25782 -0.117004,0.39844c-0.014999,0.14062 -0.022987,0.27344 -0.022987,0.39844c0,0.1875 0.007988,0.375 0.022987,0.5625c0.015999,0.1875 0.024002,0.36718 0.024002,0.53906c0,0.1875 -0.024002,0.375 -0.070999,0.5625c-0.030991,0.1875 -0.117004,0.3516 -0.257004,0.4922c-0.015999,0.2031 -0.031998,0.4375 -0.046997,0.7031c0,0.25 -0.015999,0.5078 -0.046989,0.7734c-0.016014,0.265699 -0.055,0.523499 -0.117012,0.773499c-0.062988,0.25 -0.156998,0.4531 -0.281998,0.6094c-0.014999,0.234301 -0.030991,0.476501 -0.04599,0.726501c0,0.2344 0,0.460999 0,0.6797c0,0.3438 0.014999,0.749999 0.04599,1.218801c0.046997,0.468699 0.156998,0.859299 0.327995,1.171799c0.079002,0.125 0.227005,0.218801 0.446014,0.281301c0.233986,0.0625 0.421989,0.093699 0.561989,0.093699c0.171997,0 0.344002,-0.023399 0.515999,-0.070299c0.187004,-0.0625 0.32,-0.164 0.398003,-0.304701c0.094009,0.015701 0.156998,0.0625 0.187996,0.140701c0.031013,0.0781 0.086014,0.1406 0.164001,0.1875c0.890999,-0.375 1.780998,-0.7344 2.672012,-1.078201c0.889992,-0.343699 1.764992,-0.7421 2.624985,-1.195299c0.125,0.0625 0.258011,0.0938 0.39801,0.0938c0.156998,0 0.312988,-0.0156 0.468994,-0.0469c0.156006,-0.0313 0.311996,-0.0469 0.468994,-0.0469l0.164001,0c0.031006,0.0938 0.046997,0.1641 0.046997,0.210999zm18.375,4.828101c0,0.125 -0.054993,0.2265 -0.163986,0.304699c-0.110001,0.0781 -0.235001,0.1562 -0.375,0.2344l-0.422012,0.210901c-0.140991,0.0625 -0.235001,0.148399 -0.281998,0.257799c-0.17099,-0.0469 -0.343002,-0.0781 -0.514999,-0.0937c-0.155991,-0.015699 -0.313004,-0.0235 -0.468994,-0.0235c-0.203003,0 -0.414001,0.0235 -0.632996,0.070301c-0.218002,0.0313 -0.390015,0.132799 -0.515015,0.304699c-0.077988,-0.031199 -0.148987,-0.0469 -0.210999,-0.0469l-0.187988,0c-0.234009,0 -0.476013,0.015701 -0.726013,0.0469c-0.234985,0.046902 -0.468994,0.070301 -0.702988,0.070301c-0.125,0 -0.25,-0.007801 -0.375,-0.023399c-0.110001,-0.0156 -0.210999,-0.0625 -0.305008,-0.1406c-0.140991,0.046799 -0.289001,0.070299 -0.444992,0.070299c-0.20401,0 -0.399002,-0.0313 -0.585999,-0.0938c-0.188004,-0.0625 -0.375,-0.132801 -0.563004,-0.210899c-0.171997,-0.093801 -0.350998,-0.179701 -0.539001,-0.257801c-0.186996,-0.078199 -0.375,-0.1406 -0.561996,-0.1875l-0.165009,-0.3281c-0.25,-0.0469 -0.483994,-0.117199 -0.703003,-0.211c-0.202988,-0.1094 -0.405991,-0.226599 -0.608994,-0.351599c-0.203003,-0.125 -0.406006,-0.2421 -0.608994,-0.3515c-0.188004,-0.125 -0.383011,-0.210901 -0.586014,-0.257801c-0.077988,-0.0625 -0.148987,-0.117199 -0.210999,-0.164101c-0.062988,-0.0625 -0.110001,-0.148399 -0.140991,-0.257799c-0.203003,-0.0469 -0.391006,-0.1094 -0.561996,-0.1875l-0.493011,-0.257799c-0.155991,-0.093801 -0.335999,-0.171902 -0.539001,-0.234402c-0.186996,-0.078098 -0.413986,-0.125 -0.679001,-0.140598c-0.093994,-0.1406 -0.22699,-0.2735 -0.398987,-0.3985c-0.172012,-0.125 -0.343002,-0.187401 -0.514999,-0.187401c-0.110001,0 -0.195999,0.023401 -0.258011,0.070301l0,0.1171c0,0.187599 0.054001,0.375 0.164001,0.562599c0.109009,0.187401 0.25,0.320301 0.421997,0.398401c-0.015991,0.031199 -0.023987,0.078098 -0.023987,0.140598c0,0.093801 0.015991,0.1875 0.046997,0.281301c0.046997,0.093699 0.125,0.156199 0.235001,0.1875c-0.063004,0.171799 -0.141006,0.3515 -0.235001,0.539c-0.094009,0.1719 -0.210999,0.336 -0.350998,0.492199c-0.141006,0.156301 -0.297012,0.289101 -0.469009,0.398401c-0.155991,0.0938 -0.335999,0.140699 -0.539001,0.140699c-0.062988,0.0312 -0.110001,0.0781 -0.140991,0.1406c-0.014999,0.0625 -0.031006,0.132799 -0.046997,0.210899c0,0.0625 -0.015015,0.125 -0.047012,0.1875c-0.014999,0.0625 -0.04599,0.1094 -0.093002,0.140701c-0.062988,0.0156 -0.148987,0.023399 -0.257996,0.023399c-0.155991,0 -0.289001,-0.023399 -0.399002,-0.070299c-0.108994,-0.046902 -0.225998,-0.109402 -0.350998,-0.1875l0,-0.093801c0,-0.1875 -0.039001,-0.335899 -0.117004,-0.445299c-0.062988,-0.109301 -0.140991,-0.210899 -0.234985,-0.304701c-0.078003,-0.109299 -0.156006,-0.218699 -0.234009,-0.3281c-0.063004,-0.1094 -0.093994,-0.257799 -0.093994,-0.445299c-0.046997,0.0312 -0.100998,0.054701 -0.164001,0.070299c-0.046997,0.0156 -0.078003,0.046902 -0.094009,0.093801c-0.030991,-0.156301 -0.04599,-0.289101 -0.04599,-0.3985c0,-0.3125 0.04599,-0.6094 0.139999,-0.8906c0.110001,-0.2812 0.164001,-0.5781 0.164001,-0.8906l0,-0.351601c0,-0.3594 -0.008011,-0.710899 -0.02301,-1.054699c-0.015991,-0.3437 -0.023987,-0.6875 -0.023987,-1.0312c0,-0.2969 0.007996,-0.585999 0.023987,-0.8672c0.014999,-0.2969 0.047012,-0.5938 0.093002,-0.8906c0.171997,-1.0313 0.313004,-2.0547 0.421997,-3.0703c0.125,-1.0313 0.320999,-2.05474 0.586014,-3.07036c-0.015015,-0.07813 -0.039001,-0.15625 -0.070007,-0.23438c-0.016006,-0.07812 -0.022995,-0.15625 -0.022995,-0.23437c0,-0.0625 0.006989,-0.10157 0.022995,-0.11719c0.061996,-0.3125 0.203003,-0.57031 0.421997,-0.77344c0.219009,-0.21875 0.5,-0.32812 0.844009,-0.32812l0.069992,0c0.186996,0.07812 0.328003,0.19531 0.421997,0.35156c0.109009,0.14062 0.27301,0.19531 0.492004,0.16406c0,0.03125 -0.007996,0.0625 -0.022995,0.09375c0,0.03125 0,0.0625 0,0.09375c0,0.17188 0.04599,0.29688 0.139999,0.375c0.093994,0.07813 0.203003,0.16406 0.328003,0.25782c-0.078003,0.15624 -0.133011,0.33593 -0.164001,0.53906c-0.014999,0.20312 -0.031006,0.40625 -0.047012,0.60937c-0.014999,0.203131 -0.04599,0.39844 -0.092987,0.58594c-0.032013,0.1875 -0.102005,0.34375 -0.211014,0.46875c0.062012,0.15625 0.101013,0.3125 0.117004,0.4688c0.014999,0.1562 0.02301,0.3203 0.02301,0.492101c0,0.1719 -0.008011,0.3516 -0.02301,0.5391c-0.015991,0.1719 -0.024002,0.3516 -0.024002,0.5391c0,0.171801 0.024002,0.3281 0.070999,0.4687c0.344009,0 0.539001,-0.164001 0.585999,-0.4922c0.406006,-0.1094 0.765015,-0.2578 1.078003,-0.4453c0.328003,-0.2031 0.639999,-0.4141 0.937012,-0.6328c0.296997,-0.2187 0.585999,-0.4453 0.866989,-0.67969c0.296997,-0.234369 0.626007,-0.4375 0.985001,-0.609369l0,-0.046881c0,-0.078119 0.02301,-0.125 0.070007,-0.140619c0.046997,-0.03125 0.054993,-0.101561 0.024002,-0.21094c0.233994,-0.07812 0.429001,-0.17969 0.585999,-0.30469c0.17099,-0.140619 0.327988,-0.28906 0.468002,-0.44531l0.445999,-0.49219c0.155991,-0.17187 0.327988,-0.32031 0.514999,-0.44531c0.125,-0.26562 0.235001,-0.54688 0.327988,-0.84375c0.110001,-0.29687 0.25,-0.57031 0.422012,-0.82031c0.296997,0 0.616989,0.02344 0.960999,0.07031c0.360001,0.04687 0.664001,0.15625 0.914001,0.32813c-0.031006,0.125 0.023987,0.21093 0.164001,0.25781c-0.172012,0.65625 -0.429001,1.25 -0.77301,1.78125c-0.343994,0.51562 -0.789001,0.95312 -1.335999,1.3125c-0.078003,0.171869 -0.179993,0.32031 -0.304993,0.44531c-0.125,0.125 -0.25,0.25 -0.375,0.37505c-0.125,0.109301 -0.25,0.226501 -0.375,0.351501c-0.125,0.125 -0.226013,0.273499 -0.304001,0.4453c-0.188004,0.0313 -0.352005,0.085999 -0.493011,0.1641c-0.125,0.0781 -0.25,0.1719 -0.375,0.2812c-0.108994,0.0938 -0.233994,0.1875 -0.375,0.2813c-0.125,0.0781 -0.264999,0.1406 -0.421997,0.1875c-0.123993,0.1562 -0.272995,0.2891 -0.444992,0.3984c-0.156006,0.1094 -0.320007,0.2188 -0.492004,0.3281c-0.156006,0.0938 -0.304993,0.203199 -0.445007,0.328199c-0.140991,0.1094 -0.241989,0.2578 -0.304993,0.4453l-0.608994,0c-0.172012,0.2969 -0.399002,0.5469 -0.680008,0.75c-0.265991,0.1875 -0.539001,0.3672 -0.819992,0.5391c0.04599,0.187401 0.131989,0.3437 0.256989,0.4687c0.125,0.1094 0.258011,0.2109 0.399002,0.3047c0.156006,0.0937 0.305008,0.1953 0.445007,0.3047c0.155991,0.0937 0.289001,0.2109 0.399002,0.3515c0.655991,0.25 1.288986,0.539101 1.897995,0.867201c0.608994,0.3125 1.188004,0.695299 1.733994,1.1485c0.031998,-0.015701 0.070999,-0.0235 0.118011,-0.0235c0.125,0 0.225998,0.039101 0.304001,0.117199c0.077988,0.0625 0.187988,0.086 0.327988,0.070301c0.063004,0.1563 0.149002,0.265699 0.258011,0.3281c0.110001,0.0469 0.218994,0.086 0.327988,0.117199c0.125,0.031301 0.243011,0.078201 0.352005,0.140701c0.109009,0.0625 0.186996,0.171799 0.234009,0.3281c0.234985,0.015598 0.445999,0.0625 0.632996,0.140598c0.203003,0.0781 0.382996,0.2031 0.539001,0.375l0.280991,0c0.5,0 0.985001,0.046902 1.45401,0.1406c0.468002,0.093801 0.944992,0.140701 1.429001,0.140701c0.25,0 0.491989,-0.015701 0.72699,-0.0469c0.234009,-0.046902 0.460999,-0.125 0.679001,-0.234402c0.07901,0.046902 0.165009,0.093801 0.258011,0.1406c0.093994,0.0469 0.195999,0.0704 0.304993,0.0704c0.078003,0 0.195007,-0.015699 0.352005,-0.0469c0.014999,0.1719 0.069992,0.335899 0.164001,0.492201c0.108994,0.156199 0.163986,0.3281 0.163986,0.5156zm13.89801,-0.5156c-0.046997,0.218699 -0.14801,0.398399 -0.305008,0.539c-0.139999,0.125 -0.311996,0.226601 -0.514999,0.304699c-0.203003,0.0781 -0.414001,0.132801 -0.632996,0.164101c-0.203003,0.0156 -0.391006,0.023399 -0.561996,0.023399c-0.07901,0 -0.156998,0 -0.235001,0c-0.061996,-0.015598 -0.132996,-0.023399 -0.210999,-0.023399c-0.078003,0 -0.117004,0.039 -0.117004,0.117201c0,0.0781 -0.039001,0.132799 -0.117004,0.164c-0.078003,-0.0312 -0.155991,-0.054701 -0.235001,-0.070301c-0.077988,-0.015598 -0.155991,-0.023399 -0.233994,-0.023399c-0.109009,0 -0.218994,0.007801 -0.328003,0.023399c-0.093994,0.0156 -0.188004,0.023401 -0.281006,0.023401c-0.125,0 -0.218994,-0.0156 -0.281998,-0.046801c-0.04599,-0.0313 -0.093002,-0.0625 -0.139999,-0.0938c-0.030991,-0.046801 -0.069992,-0.0937 -0.116989,-0.1406c-0.032013,-0.0469 -0.086014,-0.085899 -0.164001,-0.117201c-0.110001,-0.0469 -0.20401,-0.054699 -0.281998,-0.023399c-0.062012,0.0312 -0.164001,-0.0156 -0.304001,-0.1406c-0.188004,-0.1563 -0.352005,-0.3438 -0.493011,-0.562599c-0.125,-0.234301 -0.25,-0.4765 -0.375,-0.7265c-0.125,-0.25 -0.256989,-0.5 -0.397995,-0.75c-0.141006,-0.25 -0.304993,-0.468801 -0.492004,-0.656301l-0.187988,0c-0.281006,0 -0.476013,0.117201 -0.586014,0.351601c-0.077988,-0.0469 -0.155991,-0.101601 -0.233994,-0.164101c-0.078003,-0.0781 -0.164001,-0.1406 -0.257996,-0.1875c-0.359009,0.1094 -0.734009,0.203201 -1.125,0.281301c-0.389999,0.078098 -0.781006,0.117199 -1.171997,0.117199l-0.328003,0c-0.094009,0 -0.195007,-0.015699 -0.304001,-0.0469c-0.156998,0.0625 -0.296997,0.1406 -0.421997,0.2344c-0.125,0.0781 -0.266006,0.117201 -0.422012,0.117201c-0.093994,0 -0.202988,-0.031301 -0.327988,-0.093801c-0.094009,0 -0.141006,0.039101 -0.141006,0.117201c0.016006,0.0781 -0.031006,0.117201 -0.141006,0.117201l-0.210999,0c-0.218002,0 -0.436996,0.007799 -0.655991,0.023399c-0.203003,0.0156 -0.414001,0.0235 -0.633011,0.0235c-0.29599,0 -0.600998,-0.039101 -0.913986,-0.117201c-0.078003,0.0469 -0.164001,0.070301 -0.258011,0.070301c-0.061996,0.031199 -0.108994,0.085899 -0.139999,0.164c-0.030991,0.062599 -0.063004,0.125 -0.093994,0.187599c-0.031006,0.046801 -0.078003,0.0937 -0.139999,0.1406c-0.046997,0.0312 -0.117996,0.039 -0.210999,0.023399c-0.031998,0.1875 -0.110001,0.336 -0.235001,0.445301c-0.125,0.1094 -0.187012,0.2735 -0.187012,0.492199c-0.171997,0.093801 -0.312988,0.210901 -0.421997,0.351601c-0.110001,0.1406 -0.218994,0.289 -0.328003,0.445301c-0.109985,0.156199 -0.22699,0.304699 -0.35199,0.445299c-0.109009,0.1406 -0.25,0.25 -0.421997,0.3281c-0.078003,0.0938 -0.101013,0.242199 -0.070007,0.445299c-0.171997,0.140701 -0.382996,0.265701 -0.632996,0.375c-0.25,0.1094 -0.484009,0.164101 -0.703003,0.164101c-0.453003,0 -0.766006,-0.242201 -0.936996,-0.726601c0,-0.156199 0.014999,-0.320299 0.04599,-0.492199c0.016006,-0.187401 0.047012,-0.359301 0.094009,-0.5156c0.046997,-0.171801 0.117004,-0.320301 0.210999,-0.445301c0.093994,-0.140598 0.227005,-0.242199 0.399002,-0.304699c0,-0.1406 -0.046997,-0.2344 -0.141006,-0.2812c-0.093994,-0.0625 -0.132996,-0.164101 -0.117004,-0.304699c0.422012,-0.2031 0.789001,-0.468801 1.101013,-0.796902c0.312988,-0.328098 0.593994,-0.6719 0.843994,-1.031199c0.266006,-0.375 0.531006,-0.75 0.796997,-1.125c0.266006,-0.375 0.561996,-0.711 0.889999,-1.007801l0,-0.4922c0.469009,-0.5 0.774002,-1.0625 0.915009,-1.6875c0.17099,-0.0313 0.280991,-0.1094 0.327988,-0.2344c0.062012,-0.125 0.093002,-0.273499 0.093002,-0.4453c0.07901,0 0.125,-0.0313 0.141006,-0.0938c0.031006,-0.0781 0.102005,-0.101501 0.210999,-0.0703c0.141006,-0.375 0.296997,-0.7187 0.468994,-1.0312c0.172012,-0.3125 0.343002,-0.625 0.514999,-0.9375c0.172012,-0.328199 0.320999,-0.6641 0.445999,-1.0078c0.140015,-0.3438 0.242004,-0.726609 0.304001,-1.14849c0.219009,-0.015619 0.336014,-0.117189 0.352005,-0.304689c0.031006,-0.20312 0.061996,-0.382811 0.093994,-0.539061c0.234009,-0.21875 0.406006,-0.47656 0.515015,-0.773439c0.125,-0.29687 0.234985,-0.60156 0.327988,-0.91406c0.094009,-0.32812 0.195999,-0.64844 0.305008,-0.96094c0.125,-0.32812 0.296997,-0.61718 0.515991,-0.86718l0,-0.07032c0,-0.07812 -0.031998,-0.125 -0.093994,-0.14062c-0.061996,-0.03125 -0.093994,-0.08594 -0.093994,-0.16406c0.015991,-0.01563 0.023987,-0.03125 0.023987,-0.04688c0.187012,-0.07812 0.328003,-0.20312 0.422012,-0.375c0.093002,-0.1875 0.233994,-0.32031 0.42099,-0.39844c0.32901,0.26563 0.618011,0.42969 0.868011,0.49219c0.25,0.04688 0.577988,0.08594 0.983994,0.11719c0.203003,0.21875 0.313004,0.48438 0.328003,0.79688c0.030991,0.29687 0.085999,0.59374 0.164001,0.89062c0.125,0.5 0.257996,0.99219 0.399002,1.47656c0.155991,0.46875 0.272995,0.95313 0.350998,1.45313c0.046997,0.296869 0.132996,0.578119 0.257996,0.84375c0.125,0.265619 0.210999,0.53906 0.257996,0.82026c0.031006,0.2188 0.031006,0.4688 0,0.75c-0.030991,0.265699 0,0.5 0.094009,0.703199l0.164001,0.375c0.077988,0.171801 0.139999,0.351501 0.186996,0.539001c0.063004,0.1875 0.117004,0.375 0.164001,0.5625c0.125,0.4688 0.235001,0.9766 0.328003,1.523499c0.109985,0.5312 0.273987,1.0156 0.491989,1.4531c0.07901,0.1563 0.195999,0.2656 0.352005,0.3281c0.171997,0.0625 0.358994,0.1094 0.563004,0.1406c0.202988,0.015699 0.397995,0.0235 0.584991,0.0235c0.20401,-0.0156 0.376007,-0.0235 0.516006,-0.0235l0.233994,0c0.094009,0 0.188004,0.015699 0.281998,0.0469c0.062012,0.125 0.094009,0.2344 0.094009,0.3281c0,0.187599 -0.063004,0.336 -0.188004,0.4454c-0.125,0.109299 -0.188004,0.234299 -0.188004,0.375c0,0.0781 0.031998,0.164 0.094009,0.257799c-0.062012,-0.0156 -0.156006,-0.0235 -0.281006,-0.0235c-0.358994,0 -0.710999,0.0625 -1.054993,0.1875c0.125,0.265701 0.288986,0.492201 0.491989,0.679701c0.219009,0.1719 0.445999,0.336 0.680008,0.492199c0.155991,-0.125 0.319992,-0.1875 0.491989,-0.1875c0.188004,0 0.360001,0.046902 0.516006,0.1406c0.171997,0.078201 0.352005,0.117201 0.539001,0.117201c0.140991,0 0.242004,-0.023399 0.304993,-0.070301c0.125,0.1406 0.226013,0.289101 0.304001,0.445301c0.07901,0.1406 0.180008,0.2735 0.305008,0.3985zm-7.335999,-3.75c-0.031006,-0.265701 -0.085999,-0.453201 -0.164001,-0.562501c-0.061996,-0.125 -0.117004,-0.273499 -0.164001,-0.445399c-0.061996,-0.2187 -0.109009,-0.4531 -0.141006,-0.7031c-0.014999,-0.25 -0.04599,-0.4922 -0.093002,-0.726501c-0.109985,-0.5313 -0.234985,-1.0625 -0.375,-1.5938c-0.125,-0.5312 -0.288986,-1.0469 -0.491989,-1.5469c0.061996,-0.0937 0.093002,-0.1797 0.093002,-0.2578l0,-0.0703c-0.139999,-0.1562 -0.242004,-0.3437 -0.304001,-0.5625c-0.063004,-0.23436 -0.125,-0.46092 -0.188004,-0.67968c-0.046997,-0.23437 -0.117004,-0.445311 -0.210999,-0.632811c-0.078003,-0.203119 -0.210999,-0.367189 -0.39801,-0.492189c-0.046997,0.09376 -0.070999,0.20313 -0.070999,0.32813c0,0.10937 0.008011,0.21094 0.024002,0.30469c0.031006,0.09375 0.046997,0.19531 0.046997,0.30468c-0.156998,0.07813 -0.273987,0.20313 -0.35199,0.375c-0.061996,0.15626 -0.171997,0.28126 -0.328003,0.375c-0.125,0.49998 -0.304993,0.97658 -0.539001,1.42968c-0.233994,0.4375 -0.483994,0.875 -0.75,1.3125c-0.25,0.4375 -0.492004,0.8828 -0.727005,1.3359c-0.233994,0.437599 -0.421997,0.898499 -0.561996,1.382899c-0.203003,0.1406 -0.343994,0.3203 -0.421997,0.539001c-0.061996,0.2188 -0.093994,0.4375 -0.093994,0.6563c0.140991,0.0781 0.296997,0.125 0.468994,0.1406c0.186996,0 0.367004,0 0.539001,0c0.171997,0 0.335999,0.0156 0.492004,0.0469c0.155991,0.0312 0.296997,0.109301 0.421997,0.234301c0.203003,-0.062401 0.421997,-0.1015 0.655991,-0.1171c0.25,-0.031301 0.45401,-0.101601 0.610001,-0.211c0.312012,0.1094 0.64801,0.164101 1.008011,0.164101c0.186996,0 0.366989,-0.0156 0.539001,-0.046902c0.186996,-0.031199 0.366989,-0.070299 0.538986,-0.117199c0.140015,0.0313 0.25,0.086 0.328003,0.164101c0.078003,0.0625 0.195007,0.085899 0.350998,0.070299c0.07901,-0.0625 0.125,-0.125 0.141006,-0.1875c0.016006,-0.0781 0.054993,-0.148399 0.117004,-0.210899z"/>
 </g>
</svg>